<?xml version="1.0" encoding="UTF-8"?>
<svg id="Layer_1" data-name="Layer 1" xmlns="http://www.w3.org/2000/svg" viewBox="0 0 110 110">
  <defs>
    <style>
      .cls-1 {
        fill: #fae34d;
      }

      .cls-2 {
        fill: none;
        stroke: #000;
        stroke-miterlimit: 10;
        stroke-width: 3px;
      }

      .cls-3 {
        fill: #ff008c;
      }

      .cls-4 {
        fill: #2a2358;
      }
    </style>
  </defs>
  <g>
    <circle class="cls-1" cx="55" cy="55" r="55"/>
    <g>
      <g>
        <path class="cls-4" d="M45.86,51.7c0-3.14-2.37-4.61-5.25-4.61h-1.41c-2.54,0-4.61,2.06-4.61,4.61h0c0,2.54,2.06,4.61,4.61,4.61h1.41c2.88,0,5.25-1.41,5.25-4.61Zm12.28-.51c0,8.32-5.25,15.36-14.33,15.36h-4.61c-2.54,0-4.61,2.06-4.61,4.61v4.09c0,2.54-2.06,4.61-4.61,4.61h-3.07c-2.54,0-4.61-2.06-4.61-4.61V41.46c0-2.54,2.06-4.61,4.61-4.61h14.84c11.2,0,16.38,6.01,16.38,14.33Z"/>
        <path class="cls-4" d="M45.75,51.59c0-3.14-2.37-4.61-5.25-4.61h-1.41c-2.54,0-4.61,2.06-4.61,4.61h0c0,2.54,2.06,4.61,4.61,4.61h1.41c2.88,0,5.25-1.41,5.25-4.61Zm12.28-.51c0,8.32-5.25,15.36-14.33,15.36h-4.61c-2.54,0-4.61,2.06-4.61,4.61v4.09c0,2.54-2.06,4.61-4.61,4.61h-3.07c-2.54,0-4.61-2.06-4.61-4.61V41.36c0-2.54,2.06-4.61,4.61-4.61h14.84c11.2,0,16.38,6.01,16.38,14.33Z"/>
        <path class="cls-4" d="M45.65,51.49c0-3.14-2.37-4.61-5.25-4.61h-1.41c-2.54,0-4.61,2.06-4.61,4.61h0c0,2.54,2.06,4.61,4.61,4.61h1.41c2.88,0,5.25-1.41,5.25-4.61Zm12.28-.51c0,8.32-5.25,15.36-14.33,15.36h-4.61c-2.54,0-4.61,2.06-4.61,4.61v4.09c0,2.54-2.06,4.61-4.61,4.61h-3.07c-2.54,0-4.61-2.06-4.61-4.61V41.25c0-2.54,2.06-4.61,4.61-4.61h14.84c11.2,0,16.38,6.01,16.38,14.33Z"/>
        <path class="cls-4" d="M45.54,51.38c0-3.14-2.37-4.61-5.25-4.61h-1.41c-2.54,0-4.61,2.06-4.61,4.61h0c0,2.54,2.06,4.61,4.61,4.61h1.41c2.88,0,5.25-1.41,5.25-4.61Zm12.28-.51c0,8.32-5.25,15.36-14.33,15.36h-4.61c-2.54,0-4.61,2.06-4.61,4.61v4.09c0,2.54-2.06,4.61-4.61,4.61h-3.07c-2.54,0-4.61-2.06-4.61-4.61V41.15c0-2.54,2.06-4.61,4.61-4.61h14.84c11.2,0,16.38,6.01,16.38,14.33Z"/>
        <path class="cls-4" d="M45.44,51.28c0-3.14-2.37-4.61-5.25-4.61h-1.41c-2.54,0-4.61,2.06-4.61,4.61h0c0,2.54,2.06,4.61,4.61,4.61h1.41c2.88,0,5.25-1.41,5.25-4.61Zm12.28-.51c0,8.32-5.25,15.36-14.33,15.36h-4.61c-2.54,0-4.61,2.06-4.61,4.61v4.09c0,2.54-2.06,4.61-4.61,4.61h-3.07c-2.54,0-4.61-2.06-4.61-4.61V41.04c0-2.54,2.06-4.61,4.61-4.61h14.84c11.2,0,16.38,6.01,16.38,14.33Z"/>
        <path class="cls-4" d="M45.33,51.17c0-3.14-2.37-4.61-5.25-4.61h-1.41c-2.54,0-4.61,2.06-4.61,4.61h0c0,2.54,2.06,4.61,4.61,4.61h1.41c2.88,0,5.25-1.41,5.25-4.61Zm12.28-.51c0,8.32-5.25,15.36-14.33,15.36h-4.61c-2.54,0-4.61,2.06-4.61,4.61v4.09c0,2.54-2.06,4.61-4.61,4.61h-3.07c-2.54,0-4.61-2.06-4.61-4.61V40.94c0-2.54,2.06-4.61,4.61-4.61h14.84c11.2,0,16.38,6.01,16.38,14.33Z"/>
        <path class="cls-4" d="M45.22,51.07c0-3.14-2.37-4.61-5.25-4.61h-1.41c-2.54,0-4.61,2.06-4.61,4.61h0c0,2.54,2.06,4.61,4.61,4.61h1.41c2.88,0,5.25-1.41,5.25-4.61Zm12.28-.51c0,8.32-5.25,15.36-14.33,15.36h-4.61c-2.54,0-4.61,2.06-4.61,4.61v4.09c0,2.54-2.06,4.61-4.61,4.61h-3.07c-2.54,0-4.61-2.06-4.61-4.61V40.83c0-2.54,2.06-4.61,4.61-4.61h14.84c11.2,0,16.38,6.01,16.38,14.33Z"/>
        <path class="cls-4" d="M45.12,50.96c0-3.14-2.37-4.61-5.25-4.61h-1.41c-2.54,0-4.61,2.06-4.61,4.61h0c0,2.54,2.06,4.61,4.61,4.61h1.41c2.88,0,5.25-1.41,5.25-4.61Zm12.28-.51c0,8.32-5.25,15.36-14.33,15.36h-4.61c-2.54,0-4.61,2.06-4.61,4.61v4.09c0,2.54-2.06,4.61-4.61,4.61h-3.07c-2.54,0-4.61-2.06-4.61-4.61V40.73c0-2.54,2.06-4.61,4.61-4.61h14.84c11.2,0,16.38,6.01,16.38,14.33Z"/>
        <path class="cls-4" d="M45.01,50.86c0-3.14-2.37-4.61-5.25-4.61h-1.41c-2.54,0-4.61,2.06-4.61,4.61h0c0,2.54,2.06,4.61,4.61,4.61h1.41c2.88,0,5.25-1.41,5.25-4.61Zm12.28-.51c0,8.32-5.25,15.36-14.33,15.36h-4.61c-2.54,0-4.61,2.06-4.61,4.61v4.09c0,2.54-2.06,4.61-4.61,4.61h-3.07c-2.54,0-4.61-2.06-4.61-4.61V40.62c0-2.54,2.06-4.61,4.61-4.61h14.84c11.2,0,16.38,6.01,16.38,14.33Z"/>
        <path class="cls-4" d="M44.9,50.75c0-3.14-2.37-4.61-5.25-4.61h-1.41c-2.54,0-4.61,2.06-4.61,4.61h0c0,2.54,2.06,4.61,4.61,4.61h1.41c2.88,0,5.25-1.41,5.25-4.61Zm12.28-.51c0,8.32-5.25,15.36-14.33,15.36h-4.61c-2.54,0-4.61,2.06-4.61,4.61v4.09c0,2.54-2.06,4.61-4.61,4.61h-3.07c-2.54,0-4.61-2.06-4.61-4.61V40.52c0-2.54,2.06-4.61,4.61-4.61h14.84c11.2,0,16.38,6.01,16.38,14.33Z"/>
        <path class="cls-4" d="M44.8,50.65c0-3.14-2.37-4.61-5.25-4.61h-1.41c-2.54,0-4.61,2.06-4.61,4.61h0c0,2.54,2.06,4.61,4.61,4.61h1.41c2.88,0,5.25-1.41,5.25-4.61Zm12.28-.51c0,8.32-5.25,15.36-14.33,15.36h-4.61c-2.54,0-4.61,2.06-4.61,4.61v4.09c0,2.54-2.06,4.61-4.61,4.61h-3.07c-2.54,0-4.61-2.06-4.61-4.61V40.41c0-2.54,2.06-4.61,4.61-4.61h14.84c11.2,0,16.38,6.01,16.38,14.33Z"/>
        <path class="cls-4" d="M44.69,50.54c0-3.14-2.37-4.61-5.25-4.61h-1.41c-2.54,0-4.61,2.06-4.61,4.61h0c0,2.54,2.06,4.61,4.61,4.61h1.41c2.88,0,5.25-1.41,5.25-4.61Zm12.28-.51c0,8.32-5.25,15.36-14.33,15.36h-4.61c-2.54,0-4.61,2.06-4.61,4.61v4.09c0,2.54-2.06,4.61-4.61,4.61h-3.07c-2.54,0-4.61-2.06-4.61-4.61V40.31c0-2.54,2.06-4.61,4.61-4.61h14.84c11.2,0,16.38,6.01,16.38,14.33Z"/>
        <path class="cls-4" d="M44.58,50.44c0-3.14-2.37-4.61-5.25-4.61h-1.41c-2.54,0-4.61,2.06-4.61,4.61h0c0,2.54,2.06,4.61,4.61,4.61h1.41c2.88,0,5.25-1.41,5.25-4.61Zm12.28-.51c0,8.32-5.25,15.36-14.33,15.36h-4.61c-2.54,0-4.61,2.06-4.61,4.61v4.09c0,2.54-2.06,4.61-4.61,4.61h-3.07c-2.54,0-4.61-2.06-4.61-4.61V40.2c0-2.54,2.06-4.61,4.61-4.61h14.84c11.2,0,16.38,6.01,16.38,14.33Z"/>
        <path class="cls-4" d="M44.48,50.33c0-3.14-2.37-4.61-5.25-4.61h-1.41c-2.54,0-4.61,2.06-4.61,4.61h0c0,2.54,2.06,4.61,4.61,4.61h1.41c2.88,0,5.25-1.41,5.25-4.61Zm12.28-.51c0,8.32-5.25,15.36-14.33,15.36h-4.61c-2.54,0-4.61,2.06-4.61,4.61v4.09c0,2.54-2.06,4.61-4.61,4.61h-3.07c-2.54,0-4.61-2.06-4.61-4.61V40.1c0-2.54,2.06-4.61,4.61-4.61h14.84c11.2,0,16.38,6.01,16.38,14.33Z"/>
        <path class="cls-4" d="M44.37,50.23c0-3.14-2.37-4.61-5.25-4.61h-1.41c-2.54,0-4.61,2.06-4.61,4.61h0c0,2.54,2.06,4.61,4.61,4.61h1.41c2.88,0,5.25-1.41,5.25-4.61Zm12.28-.51c0,8.32-5.25,15.36-14.33,15.36h-4.61c-2.54,0-4.61,2.06-4.61,4.61v4.09c0,2.54-2.06,4.61-4.61,4.61h-3.07c-2.54,0-4.61-2.06-4.61-4.61V39.99c0-2.54,2.06-4.61,4.61-4.61h14.84c11.2,0,16.38,6.01,16.38,14.33Z"/>
        <path class="cls-4" d="M44.27,50.12c0-3.14-2.37-4.61-5.25-4.61h-1.41c-2.54,0-4.61,2.06-4.61,4.61h0c0,2.54,2.06,4.61,4.61,4.61h1.41c2.88,0,5.25-1.41,5.25-4.61Zm12.28-.51c0,8.32-5.25,15.36-14.33,15.36h-4.61c-2.54,0-4.61,2.06-4.61,4.61v4.09c0,2.54-2.06,4.61-4.61,4.61h-3.07c-2.54,0-4.61-2.06-4.61-4.61V39.89c0-2.54,2.06-4.61,4.61-4.61h14.84c11.2,0,16.38,6.01,16.38,14.33Z"/>
        <path class="cls-4" d="M44.16,50.02c0-3.14-2.37-4.61-5.25-4.61h-1.41c-2.54,0-4.61,2.06-4.61,4.61h0c0,2.54,2.06,4.61,4.61,4.61h1.41c2.88,0,5.25-1.41,5.25-4.61Zm12.28-.51c0,8.32-5.25,15.36-14.33,15.36h-4.61c-2.54,0-4.61,2.06-4.61,4.61v4.09c0,2.54-2.06,4.61-4.61,4.61h-3.07c-2.54,0-4.61-2.06-4.61-4.61V39.78c0-2.54,2.06-4.61,4.61-4.61h14.84c11.2,0,16.38,6.01,16.38,14.33Z"/>
        <path class="cls-4" d="M44.05,49.91c0-3.14-2.37-4.61-5.25-4.61h-1.41c-2.54,0-4.61,2.06-4.61,4.61h0c0,2.54,2.06,4.61,4.61,4.61h1.41c2.88,0,5.25-1.41,5.25-4.61Zm12.28-.51c0,8.32-5.25,15.36-14.33,15.36h-4.61c-2.54,0-4.61,2.06-4.61,4.61v4.09c0,2.54-2.06,4.61-4.61,4.61h-3.07c-2.54,0-4.61-2.06-4.61-4.61V39.68c0-2.54,2.06-4.61,4.61-4.61h14.84c11.2,0,16.38,6.01,16.38,14.33Z"/>
        <path class="cls-4" d="M43.95,49.81c0-3.14-2.37-4.61-5.25-4.61h-1.41c-2.54,0-4.61,2.06-4.61,4.61h0c0,2.54,2.06,4.61,4.61,4.61h1.41c2.88,0,5.25-1.41,5.25-4.61Zm12.28-.51c0,8.32-5.25,15.36-14.33,15.36h-4.61c-2.54,0-4.61,2.06-4.61,4.61v4.09c0,2.54-2.06,4.61-4.61,4.61h-3.07c-2.54,0-4.61-2.06-4.61-4.61V39.57c0-2.54,2.06-4.61,4.61-4.61h14.84c11.2,0,16.38,6.01,16.38,14.33Z"/>
        <path class="cls-4" d="M43.84,49.7c0-3.14-2.37-4.61-5.25-4.61h-1.41c-2.54,0-4.61,2.06-4.61,4.61h0c0,2.54,2.06,4.61,4.61,4.61h1.41c2.88,0,5.25-1.41,5.25-4.61Zm12.28-.51c0,8.32-5.25,15.36-14.33,15.36h-4.61c-2.54,0-4.61,2.06-4.61,4.61v4.09c0,2.54-2.06,4.61-4.61,4.61h-3.07c-2.54,0-4.61-2.06-4.61-4.61V39.47c0-2.54,2.06-4.61,4.61-4.61h14.84c11.2,0,16.38,6.01,16.38,14.33Z"/>
        <path class="cls-4" d="M43.73,49.6c0-3.14-2.37-4.61-5.25-4.61h-1.41c-2.54,0-4.61,2.06-4.61,4.61h0c0,2.54,2.06,4.61,4.61,4.61h1.41c2.88,0,5.25-1.41,5.25-4.61Zm12.28-.51c0,8.32-5.25,15.36-14.33,15.36h-4.61c-2.54,0-4.61,2.06-4.61,4.61v4.09c0,2.54-2.06,4.61-4.61,4.61h-3.07c-2.54,0-4.61-2.06-4.61-4.61V39.36c0-2.54,2.06-4.61,4.61-4.61h14.84c11.2,0,16.38,6.01,16.38,14.33Z"/>
        <path class="cls-4" d="M43.63,49.49c0-3.14-2.37-4.61-5.25-4.61h-1.41c-2.54,0-4.61,2.06-4.61,4.61h0c0,2.54,2.06,4.61,4.61,4.61h1.41c2.88,0,5.25-1.41,5.25-4.61Zm12.28-.51c0,8.32-5.25,15.36-14.33,15.36h-4.61c-2.54,0-4.61,2.06-4.61,4.61v4.09c0,2.54-2.06,4.61-4.61,4.61h-3.07c-2.54,0-4.61-2.06-4.61-4.61V39.26c0-2.54,2.06-4.61,4.61-4.61h14.84c11.2,0,16.38,6.01,16.38,14.33Z"/>
        <path class="cls-4" d="M43.52,49.39c0-3.14-2.37-4.61-5.25-4.61h-1.41c-2.54,0-4.61,2.06-4.61,4.61h0c0,2.54,2.06,4.61,4.61,4.61h1.41c2.88,0,5.25-1.41,5.25-4.61Zm12.28-.51c0,8.32-5.25,15.36-14.33,15.36h-4.61c-2.54,0-4.61,2.06-4.61,4.61v4.09c0,2.54-2.06,4.61-4.61,4.61h-3.07c-2.54,0-4.61-2.06-4.61-4.61V39.15c0-2.54,2.06-4.61,4.61-4.61h14.84c11.2,0,16.38,6.01,16.38,14.33Z"/>
        <path class="cls-4" d="M43.42,49.28c0-3.14-2.37-4.61-5.25-4.61h-1.41c-2.54,0-4.61,2.06-4.61,4.61h0c0,2.54,2.06,4.61,4.61,4.61h1.41c2.88,0,5.25-1.41,5.25-4.61Zm12.28-.51c0,8.32-5.25,15.36-14.33,15.36h-4.61c-2.54,0-4.61,2.06-4.61,4.61v4.09c0,2.54-2.06,4.61-4.61,4.61h-3.07c-2.54,0-4.61-2.06-4.61-4.61V39.05c0-2.54,2.06-4.61,4.61-4.61h14.84c11.2,0,16.38,6.01,16.38,14.33Z"/>
        <path class="cls-4" d="M43.31,49.18c0-3.14-2.37-4.61-5.25-4.61h-1.41c-2.54,0-4.61,2.06-4.61,4.61h0c0,2.54,2.06,4.61,4.61,4.61h1.41c2.88,0,5.25-1.41,5.25-4.61Zm12.28-.51c0,8.32-5.25,15.36-14.33,15.36h-4.61c-2.54,0-4.61,2.06-4.61,4.61v4.09c0,2.54-2.06,4.61-4.61,4.61h-3.07c-2.54,0-4.61-2.06-4.61-4.61V38.94c0-2.54,2.06-4.61,4.61-4.61h14.84c11.2,0,16.38,6.01,16.38,14.33Z"/>
        <path class="cls-4" d="M43.2,49.08c0-3.14-2.37-4.61-5.25-4.61h-1.41c-2.54,0-4.61,2.06-4.61,4.61h0c0,2.54,2.06,4.61,4.61,4.61h1.41c2.88,0,5.25-1.41,5.25-4.61Zm12.28-.51c0,8.32-5.25,15.36-14.33,15.36h-4.61c-2.54,0-4.61,2.06-4.61,4.61v4.09c0,2.54-2.06,4.61-4.61,4.61h-3.07c-2.54,0-4.61-2.06-4.61-4.61V38.84c0-2.54,2.06-4.61,4.61-4.61h14.84c11.2,0,16.38,6.01,16.38,14.33Z"/>
        <path class="cls-4" d="M43.1,48.97c0-3.14-2.37-4.61-5.25-4.61h-1.41c-2.54,0-4.61,2.06-4.61,4.61h0c0,2.54,2.06,4.61,4.61,4.61h1.41c2.88,0,5.25-1.41,5.25-4.61Zm12.28-.51c0,8.32-5.25,15.36-14.33,15.36h-4.61c-2.54,0-4.61,2.06-4.61,4.61v4.09c0,2.54-2.06,4.61-4.61,4.61h-3.07c-2.54,0-4.61-2.06-4.61-4.61V38.73c0-2.54,2.06-4.61,4.61-4.61h14.84c11.2,0,16.38,6.01,16.38,14.33Z"/>
        <path class="cls-4" d="M42.99,48.87c0-3.14-2.37-4.61-5.25-4.61h-1.41c-2.54,0-4.61,2.06-4.61,4.61h0c0,2.54,2.06,4.61,4.61,4.61h1.41c2.88,0,5.25-1.41,5.25-4.61Zm12.28-.51c0,8.32-5.25,15.36-14.33,15.36h-4.61c-2.54,0-4.61,2.06-4.61,4.61v4.09c0,2.54-2.06,4.61-4.61,4.61h-3.07c-2.54,0-4.61-2.06-4.61-4.61V38.63c0-2.54,2.06-4.61,4.61-4.61h14.84c11.2,0,16.38,6.01,16.38,14.33Z"/>
        <path class="cls-4" d="M42.88,48.76c0-3.14-2.37-4.61-5.25-4.61h-1.41c-2.54,0-4.61,2.06-4.61,4.61h0c0,2.54,2.06,4.61,4.61,4.61h1.41c2.88,0,5.25-1.41,5.25-4.61Zm12.28-.51c0,8.32-5.25,15.36-14.33,15.36h-4.61c-2.54,0-4.61,2.06-4.61,4.61v4.09c0,2.54-2.06,4.61-4.61,4.61h-3.07c-2.54,0-4.61-2.06-4.61-4.61V38.52c0-2.54,2.06-4.61,4.61-4.61h14.84c11.2,0,16.38,6.01,16.38,14.33Z"/>
        <path class="cls-4" d="M42.78,48.66c0-3.14-2.37-4.61-5.25-4.61h-1.41c-2.54,0-4.61,2.06-4.61,4.61h0c0,2.54,2.06,4.61,4.61,4.61h1.41c2.88,0,5.25-1.41,5.25-4.61Zm12.28-.51c0,8.32-5.25,15.36-14.33,15.36h-4.61c-2.54,0-4.61,2.06-4.61,4.61v4.09c0,2.54-2.06,4.61-4.61,4.61h-3.07c-2.54,0-4.61-2.06-4.61-4.61V38.42c0-2.54,2.06-4.61,4.61-4.61h14.84c11.2,0,16.38,6.01,16.38,14.33Z"/>
        <path class="cls-4" d="M42.67,48.55c0-3.14-2.37-4.61-5.25-4.61h-1.41c-2.54,0-4.61,2.06-4.61,4.61h0c0,2.54,2.06,4.61,4.61,4.61h1.41c2.88,0,5.25-1.41,5.25-4.61Zm12.28-.51c0,8.32-5.25,15.36-14.33,15.36h-4.61c-2.54,0-4.61,2.06-4.61,4.61v4.09c0,2.54-2.06,4.61-4.61,4.61h-3.07c-2.54,0-4.61-2.06-4.61-4.61V38.31c0-2.54,2.06-4.61,4.61-4.61h14.84c11.2,0,16.38,6.01,16.38,14.33Z"/>
        <path class="cls-4" d="M42.57,48.45c0-3.14-2.37-4.61-5.25-4.61h-1.41c-2.54,0-4.61,2.06-4.61,4.61h0c0,2.54,2.06,4.61,4.61,4.61h1.41c2.88,0,5.25-1.41,5.25-4.61Zm12.28-.51c0,8.32-5.25,15.36-14.33,15.36h-4.61c-2.54,0-4.61,2.06-4.61,4.61v4.09c0,2.54-2.06,4.61-4.61,4.61h-3.07c-2.54,0-4.61-2.06-4.61-4.61V38.21c0-2.54,2.06-4.61,4.61-4.61h14.84c11.2,0,16.38,6.01,16.38,14.33Z"/>
        <path class="cls-4" d="M42.46,48.34c0-3.14-2.37-4.61-5.25-4.61h-1.41c-2.54,0-4.61,2.06-4.61,4.61h0c0,2.54,2.06,4.61,4.61,4.61h1.41c2.88,0,5.25-1.41,5.25-4.61Zm12.28-.51c0,8.32-5.25,15.36-14.33,15.36h-4.61c-2.54,0-4.61,2.06-4.61,4.61v4.09c0,2.54-2.06,4.61-4.61,4.61h-3.07c-2.54,0-4.61-2.06-4.61-4.61V38.1c0-2.54,2.06-4.61,4.61-4.61h14.84c11.2,0,16.38,6.01,16.38,14.33Z"/>
        <path class="cls-4" d="M42.35,48.24c0-3.14-2.37-4.61-5.25-4.61h-1.41c-2.54,0-4.61,2.06-4.61,4.61h0c0,2.54,2.06,4.61,4.61,4.61h1.41c2.88,0,5.25-1.41,5.25-4.61Zm12.28-.51c0,8.32-5.25,15.36-14.33,15.36h-4.61c-2.54,0-4.61,2.06-4.61,4.61v4.09c0,2.54-2.06,4.61-4.61,4.61h-3.07c-2.54,0-4.61-2.06-4.61-4.61V38c0-2.54,2.06-4.61,4.61-4.61h14.84c11.2,0,16.38,6.01,16.38,14.33Z"/>
        <path class="cls-4" d="M42.25,48.13c0-3.14-2.37-4.61-5.25-4.61h-1.41c-2.54,0-4.61,2.06-4.61,4.61h0c0,2.54,2.06,4.61,4.61,4.61h1.41c2.88,0,5.25-1.41,5.25-4.61Zm12.28-.51c0,8.32-5.25,15.36-14.33,15.36h-4.61c-2.54,0-4.61,2.06-4.61,4.61v4.09c0,2.54-2.06,4.61-4.61,4.61h-3.07c-2.54,0-4.61-2.06-4.61-4.61V37.89c0-2.54,2.06-4.61,4.61-4.61h14.84c11.2,0,16.38,6.01,16.38,14.33Z"/>
        <path class="cls-4" d="M42.14,48.03c0-3.14-2.37-4.61-5.25-4.61h-1.41c-2.54,0-4.61,2.06-4.61,4.61h0c0,2.54,2.06,4.61,4.61,4.61h1.41c2.88,0,5.25-1.41,5.25-4.61Zm12.28-.51c0,8.32-5.25,15.36-14.33,15.36h-4.61c-2.54,0-4.61,2.06-4.61,4.61v4.09c0,2.54-2.06,4.61-4.61,4.61h-3.07c-2.54,0-4.61-2.06-4.61-4.61V37.79c0-2.54,2.06-4.61,4.61-4.61h14.84c11.2,0,16.38,6.01,16.38,14.33Z"/>
        <path class="cls-4" d="M42.03,47.92c0-3.14-2.37-4.61-5.25-4.61h-1.41c-2.54,0-4.61,2.06-4.61,4.61h0c0,2.54,2.06,4.61,4.61,4.61h1.41c2.88,0,5.25-1.41,5.25-4.61Zm12.28-.51c0,8.32-5.25,15.36-14.33,15.36h-4.61c-2.54,0-4.61,2.06-4.61,4.61v4.09c0,2.54-2.06,4.61-4.61,4.61h-3.07c-2.54,0-4.61-2.06-4.61-4.61V37.68c0-2.54,2.06-4.61,4.61-4.61h14.84c11.2,0,16.38,6.01,16.38,14.33Z"/>
        <path class="cls-4" d="M41.93,47.82c0-3.14-2.37-4.61-5.25-4.61h-1.41c-2.54,0-4.61,2.06-4.61,4.61h0c0,2.54,2.06,4.61,4.61,4.61h1.41c2.88,0,5.25-1.41,5.25-4.61Zm12.28-.51c0,8.32-5.25,15.36-14.33,15.36h-4.61c-2.54,0-4.61,2.06-4.61,4.61v4.09c0,2.54-2.06,4.61-4.61,4.61h-3.07c-2.54,0-4.61-2.06-4.61-4.61V37.58c0-2.54,2.06-4.61,4.61-4.61h14.84c11.2,0,16.38,6.01,16.38,14.33Z"/>
        <path class="cls-4" d="M41.82,47.71c0-3.14-2.37-4.61-5.25-4.61h-1.41c-2.54,0-4.61,2.06-4.61,4.61h0c0,2.54,2.06,4.61,4.61,4.61h1.41c2.88,0,5.25-1.41,5.25-4.61Zm12.28-.51c0,8.32-5.25,15.36-14.33,15.36h-4.61c-2.54,0-4.61,2.06-4.61,4.61v4.09c0,2.54-2.06,4.61-4.61,4.61h-3.07c-2.54,0-4.61-2.06-4.61-4.61V37.47c0-2.54,2.06-4.61,4.61-4.61h14.84c11.2,0,16.38,6.01,16.38,14.33Z"/>
        <path class="cls-4" d="M41.71,47.61c0-3.14-2.37-4.61-5.25-4.61h-1.41c-2.54,0-4.61,2.06-4.61,4.61h0c0,2.54,2.06,4.61,4.61,4.61h1.41c2.88,0,5.25-1.41,5.25-4.61Zm12.28-.51c0,8.32-5.25,15.36-14.33,15.36h-4.61c-2.54,0-4.61,2.06-4.61,4.61v4.09c0,2.54-2.06,4.61-4.61,4.61h-3.07c-2.54,0-4.61-2.06-4.61-4.61V37.37c0-2.54,2.06-4.61,4.61-4.61h14.84c11.2,0,16.38,6.01,16.38,14.33Z"/>
        <path class="cls-4" d="M41.61,47.5c0-3.14-2.37-4.61-5.25-4.61h-1.41c-2.54,0-4.61,2.06-4.61,4.61h0c0,2.54,2.06,4.61,4.61,4.61h1.41c2.88,0,5.25-1.41,5.25-4.61Zm12.28-.51c0,8.32-5.25,15.36-14.33,15.36h-4.61c-2.54,0-4.61,2.06-4.61,4.61v4.09c0,2.54-2.06,4.61-4.61,4.61h-3.07c-2.54,0-4.61-2.06-4.61-4.61V37.27c0-2.54,2.06-4.61,4.61-4.61h14.84c11.2,0,16.38,6.01,16.38,14.33Z"/>
        <path class="cls-4" d="M41.5,47.4c0-3.14-2.37-4.61-5.25-4.61h-1.41c-2.54,0-4.61,2.06-4.61,4.61h0c0,2.54,2.06,4.61,4.61,4.61h1.41c2.88,0,5.25-1.41,5.25-4.61Zm12.28-.51c0,8.32-5.25,15.36-14.33,15.36h-4.61c-2.54,0-4.61,2.06-4.61,4.61v4.09c0,2.54-2.06,4.61-4.61,4.61h-3.07c-2.54,0-4.61-2.06-4.61-4.61V37.16c0-2.54,2.06-4.61,4.61-4.61h14.84c11.2,0,16.38,6.01,16.38,14.33Z"/>
        <path class="cls-4" d="M41.4,47.29c0-3.14-2.37-4.61-5.25-4.61h-1.41c-2.54,0-4.61,2.06-4.61,4.61h0c0,2.54,2.06,4.61,4.61,4.61h1.41c2.88,0,5.25-1.41,5.25-4.61Zm12.28-.51c0,8.32-5.25,15.36-14.33,15.36h-4.61c-2.54,0-4.61,2.06-4.61,4.61v4.09c0,2.54-2.06,4.61-4.61,4.61h-3.07c-2.54,0-4.61-2.06-4.61-4.61V37.06c0-2.54,2.06-4.61,4.61-4.61h14.84c11.2,0,16.38,6.01,16.38,14.33Z"/>
        <path class="cls-4" d="M41.29,47.19c0-3.14-2.37-4.61-5.25-4.61h-1.41c-2.54,0-4.61,2.06-4.61,4.61h0c0,2.54,2.06,4.61,4.61,4.61h1.41c2.88,0,5.25-1.41,5.25-4.61Zm12.28-.51c0,8.32-5.25,15.36-14.33,15.36h-4.61c-2.54,0-4.61,2.06-4.61,4.61v4.09c0,2.54-2.06,4.61-4.61,4.61h-3.07c-2.54,0-4.61-2.06-4.61-4.61V36.95c0-2.54,2.06-4.61,4.61-4.61h14.84c11.2,0,16.38,6.01,16.38,14.33Z"/>
        <path class="cls-4" d="M41.18,47.08c0-3.14-2.37-4.61-5.25-4.61h-1.41c-2.54,0-4.61,2.06-4.61,4.61h0c0,2.54,2.06,4.61,4.61,4.61h1.41c2.88,0,5.25-1.41,5.25-4.61Zm12.28-.51c0,8.32-5.25,15.36-14.33,15.36h-4.61c-2.54,0-4.61,2.06-4.61,4.61v4.09c0,2.54-2.06,4.61-4.61,4.61h-3.07c-2.54,0-4.61-2.06-4.61-4.61V36.85c0-2.54,2.06-4.61,4.61-4.61h14.84c11.2,0,16.38,6.01,16.38,14.33Z"/>
        <path class="cls-4" d="M41.08,46.98c0-3.14-2.37-4.61-5.25-4.61h-1.41c-2.54,0-4.61,2.06-4.61,4.61h0c0,2.54,2.06,4.61,4.61,4.61h1.41c2.88,0,5.25-1.41,5.25-4.61Zm12.28-.51c0,8.32-5.25,15.36-14.33,15.36h-4.61c-2.54,0-4.61,2.06-4.61,4.61v4.09c0,2.54-2.06,4.61-4.61,4.61h-3.07c-2.54,0-4.61-2.06-4.61-4.61V36.74c0-2.54,2.06-4.61,4.61-4.61h14.84c11.2,0,16.38,6.01,16.38,14.33Z"/>
        <path class="cls-4" d="M40.97,46.87c0-3.14-2.37-4.61-5.25-4.61h-1.41c-2.54,0-4.61,2.06-4.61,4.61h0c0,2.54,2.06,4.61,4.61,4.61h1.41c2.88,0,5.25-1.41,5.25-4.61Zm12.28-.51c0,8.32-5.25,15.36-14.33,15.36h-4.61c-2.54,0-4.61,2.06-4.61,4.61v4.09c0,2.54-2.06,4.61-4.61,4.61h-3.07c-2.54,0-4.61-2.06-4.61-4.61V36.64c0-2.54,2.06-4.61,4.61-4.61h14.84c11.2,0,16.38,6.01,16.38,14.33Z"/>
        <path class="cls-4" d="M40.86,46.77c0-3.14-2.37-4.61-5.25-4.61h-1.41c-2.54,0-4.61,2.06-4.61,4.61h0c0,2.54,2.06,4.61,4.61,4.61h1.41c2.88,0,5.25-1.41,5.25-4.61Zm12.28-.51c0,8.32-5.25,15.36-14.33,15.36h-4.61c-2.54,0-4.61,2.06-4.61,4.61v4.09c0,2.54-2.06,4.61-4.61,4.61h-3.07c-2.54,0-4.61-2.06-4.61-4.61V36.53c0-2.54,2.06-4.61,4.61-4.61h14.84c11.2,0,16.38,6.01,16.38,14.33Z"/>
        <path class="cls-4" d="M40.76,46.66c0-3.14-2.37-4.61-5.25-4.61h-1.41c-2.54,0-4.61,2.06-4.61,4.61h0c0,2.54,2.06,4.61,4.61,4.61h1.41c2.88,0,5.25-1.41,5.25-4.61Zm12.28-.51c0,8.32-5.25,15.36-14.33,15.36h-4.61c-2.54,0-4.61,2.06-4.61,4.61v4.09c0,2.54-2.06,4.61-4.61,4.61h-3.07c-2.54,0-4.61-2.06-4.61-4.61V36.43c0-2.54,2.06-4.61,4.61-4.61h14.84c11.2,0,16.38,6.01,16.38,14.33Z"/>
        <path class="cls-4" d="M40.65,46.56c0-3.14-2.37-4.61-5.25-4.61h-1.41c-2.54,0-4.61,2.06-4.61,4.61h0c0,2.54,2.06,4.61,4.61,4.61h1.41c2.88,0,5.25-1.41,5.25-4.61Zm12.28-.51c0,8.32-5.25,15.36-14.33,15.36h-4.61c-2.54,0-4.61,2.06-4.61,4.61v4.09c0,2.54-2.06,4.61-4.61,4.61h-3.07c-2.54,0-4.61-2.06-4.61-4.61V36.32c0-2.54,2.06-4.61,4.61-4.61h14.84c11.2,0,16.38,6.01,16.38,14.33Z"/>
        <path class="cls-4" d="M40.55,46.45c0-3.14-2.37-4.61-5.25-4.61h-1.41c-2.54,0-4.61,2.06-4.61,4.61h0c0,2.54,2.06,4.61,4.61,4.61h1.41c2.88,0,5.25-1.41,5.25-4.61Zm12.28-.51c0,8.32-5.25,15.36-14.33,15.36h-4.61c-2.54,0-4.61,2.06-4.61,4.61v4.09c0,2.54-2.06,4.61-4.61,4.61h-3.07c-2.54,0-4.61-2.06-4.61-4.61V36.22c0-2.54,2.06-4.61,4.61-4.61h14.84c11.2,0,16.38,6.01,16.38,14.33Z"/>
        <path class="cls-4" d="M40.44,46.35c0-3.14-2.37-4.61-5.25-4.61h-1.41c-2.54,0-4.61,2.06-4.61,4.61h0c0,2.54,2.06,4.61,4.61,4.61h1.41c2.88,0,5.25-1.41,5.25-4.61Zm12.28-.51c0,8.32-5.25,15.36-14.33,15.36h-4.61c-2.54,0-4.61,2.06-4.61,4.61v4.09c0,2.54-2.06,4.61-4.61,4.61h-3.07c-2.54,0-4.61-2.06-4.61-4.61V36.11c0-2.54,2.06-4.61,4.61-4.61h14.84c11.2,0,16.38,6.01,16.38,14.33Z"/>
        <path class="cls-4" d="M40.33,46.24c0-3.14-2.37-4.61-5.25-4.61h-1.41c-2.54,0-4.61,2.06-4.61,4.61h0c0,2.54,2.06,4.61,4.61,4.61h1.41c2.88,0,5.25-1.41,5.25-4.61Zm12.28-.51c0,8.32-5.25,15.36-14.33,15.36h-4.61c-2.54,0-4.61,2.06-4.61,4.61v4.09c0,2.54-2.06,4.61-4.61,4.61h-3.07c-2.54,0-4.61-2.06-4.61-4.61V36.01c0-2.54,2.06-4.61,4.61-4.61h14.84c11.2,0,16.38,6.01,16.38,14.33Z"/>
        <path class="cls-4" d="M40.23,46.14c0-3.14-2.37-4.61-5.25-4.61h-1.41c-2.54,0-4.61,2.06-4.61,4.61h0c0,2.54,2.06,4.61,4.61,4.61h1.41c2.88,0,5.25-1.41,5.25-4.61Zm12.28-.51c0,8.32-5.25,15.36-14.33,15.36h-4.61c-2.54,0-4.61,2.06-4.61,4.61v4.09c0,2.54-2.06,4.61-4.61,4.61h-3.07c-2.54,0-4.61-2.06-4.61-4.61V35.9c0-2.54,2.06-4.61,4.61-4.61h14.84c11.2,0,16.38,6.01,16.38,14.33Z"/>
        <path class="cls-4" d="M40.12,46.03c0-3.14-2.37-4.61-5.25-4.61h-1.41c-2.54,0-4.61,2.06-4.61,4.61h0c0,2.54,2.06,4.61,4.61,4.61h1.41c2.88,0,5.25-1.41,5.25-4.61Zm12.28-.51c0,8.32-5.25,15.36-14.33,15.36h-4.61c-2.54,0-4.61,2.06-4.61,4.61v4.09c0,2.54-2.06,4.61-4.61,4.61h-3.07c-2.54,0-4.61-2.06-4.61-4.61V35.8c0-2.54,2.06-4.61,4.61-4.61h14.84c11.2,0,16.38,6.01,16.38,14.33Z"/>
        <path class="cls-4" d="M40.01,45.93c0-3.14-2.37-4.61-5.25-4.61h-1.41c-2.54,0-4.61,2.06-4.61,4.61h0c0,2.54,2.06,4.61,4.61,4.61h1.41c2.88,0,5.25-1.41,5.25-4.61Zm12.28-.51c0,8.32-5.25,15.36-14.33,15.36h-4.61c-2.54,0-4.61,2.06-4.61,4.61v4.09c0,2.54-2.06,4.61-4.61,4.61h-3.07c-2.54,0-4.61-2.06-4.61-4.61V35.69c0-2.54,2.06-4.61,4.61-4.61h14.84c11.2,0,16.38,6.01,16.38,14.33Z"/>
        <path class="cls-4" d="M39.91,45.82c0-3.14-2.37-4.61-5.25-4.61h-1.41c-2.54,0-4.61,2.06-4.61,4.61h0c0,2.54,2.06,4.61,4.61,4.61h1.41c2.88,0,5.25-1.41,5.25-4.61Zm12.28-.51c0,8.32-5.25,15.36-14.33,15.36h-4.61c-2.54,0-4.61,2.06-4.61,4.61v4.09c0,2.54-2.06,4.61-4.61,4.61h-3.07c-2.54,0-4.61-2.06-4.61-4.61V35.59c0-2.54,2.06-4.61,4.61-4.61h14.84c11.2,0,16.38,6.01,16.38,14.33Z"/>
        <path class="cls-4" d="M39.8,45.72c0-3.14-2.37-4.61-5.25-4.61h-1.41c-2.54,0-4.61,2.06-4.61,4.61h0c0,2.54,2.06,4.61,4.61,4.61h1.41c2.88,0,5.25-1.41,5.25-4.61Zm12.28-.51c0,8.32-5.25,15.36-14.33,15.36h-4.61c-2.54,0-4.61,2.06-4.61,4.61v4.09c0,2.54-2.06,4.61-4.61,4.61h-3.07c-2.54,0-4.61-2.06-4.61-4.61V35.48c0-2.54,2.06-4.61,4.61-4.61h14.84c11.2,0,16.38,6.01,16.38,14.33Z"/>
        <path class="cls-4" d="M39.7,45.61c0-3.14-2.37-4.61-5.25-4.61h-1.41c-2.54,0-4.61,2.06-4.61,4.61h0c0,2.54,2.06,4.61,4.61,4.61h1.41c2.88,0,5.25-1.41,5.25-4.61Zm12.28-.51c0,8.32-5.25,15.36-14.33,15.36h-4.61c-2.54,0-4.61,2.06-4.61,4.61v4.09c0,2.54-2.06,4.61-4.61,4.61h-3.07c-2.54,0-4.61-2.06-4.61-4.61V35.38c0-2.54,2.06-4.61,4.61-4.61h14.84c11.2,0,16.38,6.01,16.38,14.33Z"/>
        <path class="cls-4" d="M39.59,45.51c0-3.14-2.37-4.61-5.25-4.61h-1.41c-2.54,0-4.61,2.06-4.61,4.61h0c0,2.54,2.06,4.61,4.61,4.61h1.41c2.88,0,5.25-1.41,5.25-4.61Zm12.28-.51c0,8.32-5.25,15.36-14.33,15.36h-4.61c-2.54,0-4.61,2.06-4.61,4.61v4.09c0,2.54-2.06,4.61-4.61,4.61h-3.07c-2.54,0-4.61-2.06-4.61-4.61V35.27c0-2.54,2.06-4.61,4.61-4.61h14.84c11.2,0,16.38,6.01,16.38,14.33Z"/>
        <path class="cls-4" d="M39.48,45.4c0-3.14-2.37-4.61-5.25-4.61h-1.41c-2.54,0-4.61,2.06-4.61,4.61h0c0,2.54,2.06,4.61,4.61,4.61h1.41c2.88,0,5.25-1.41,5.25-4.61Zm12.28-.51c0,8.32-5.25,15.36-14.33,15.36h-4.61c-2.54,0-4.61,2.06-4.61,4.61v4.09c0,2.54-2.06,4.61-4.61,4.61h-3.07c-2.54,0-4.61-2.06-4.61-4.61V35.17c0-2.54,2.06-4.61,4.61-4.61h14.84c11.2,0,16.38,6.01,16.38,14.33Z"/>
        <path class="cls-4" d="M39.38,45.3c0-3.14-2.37-4.61-5.25-4.61h-1.41c-2.54,0-4.61,2.06-4.61,4.61h0c0,2.54,2.06,4.61,4.61,4.61h1.41c2.88,0,5.25-1.41,5.25-4.61Zm12.28-.51c0,8.32-5.25,15.36-14.33,15.36h-4.61c-2.54,0-4.61,2.06-4.61,4.61v4.09c0,2.54-2.06,4.61-4.61,4.61h-3.07c-2.54,0-4.61-2.06-4.61-4.61V35.06c0-2.54,2.06-4.61,4.61-4.61h14.84c11.2,0,16.38,6.01,16.38,14.33Z"/>
        <path class="cls-4" d="M39.27,45.19c0-3.14-2.37-4.61-5.25-4.61h-1.41c-2.54,0-4.61,2.06-4.61,4.61h0c0,2.54,2.06,4.61,4.61,4.61h1.41c2.88,0,5.25-1.41,5.25-4.61Zm12.28-.51c0,8.32-5.25,15.36-14.33,15.36h-4.61c-2.54,0-4.61,2.06-4.61,4.61v4.09c0,2.54-2.06,4.61-4.61,4.61h-3.07c-2.54,0-4.61-2.06-4.61-4.61V34.96c0-2.54,2.06-4.61,4.61-4.61h14.84c11.2,0,16.38,6.01,16.38,14.33Z"/>
        <path class="cls-4" d="M39.16,45.09c0-3.14-2.37-4.61-5.25-4.61h-1.41c-2.54,0-4.61,2.06-4.61,4.61h0c0,2.54,2.06,4.61,4.61,4.61h1.41c2.88,0,5.25-1.41,5.25-4.61Zm12.28-.51c0,8.32-5.25,15.36-14.33,15.36h-4.61c-2.54,0-4.61,2.06-4.61,4.61v4.09c0,2.54-2.06,4.61-4.61,4.61h-3.07c-2.54,0-4.61-2.06-4.61-4.61V34.85c0-2.54,2.06-4.61,4.61-4.61h14.84c11.2,0,16.38,6.01,16.38,14.33Z"/>
        <path class="cls-4" d="M39.06,44.99c0-3.14-2.37-4.61-5.25-4.61h-1.41c-2.54,0-4.61,2.06-4.61,4.61h0c0,2.54,2.06,4.61,4.61,4.61h1.41c2.88,0,5.25-1.41,5.25-4.61Zm12.28-.51c0,8.32-5.25,15.36-14.33,15.36h-4.61c-2.54,0-4.61,2.06-4.61,4.61v4.09c0,2.54-2.06,4.61-4.61,4.61h-3.07c-2.54,0-4.61-2.06-4.61-4.61V34.75c0-2.54,2.06-4.61,4.61-4.61h14.84c11.2,0,16.38,6.01,16.38,14.33Z"/>
        <path class="cls-4" d="M38.95,44.88c0-3.14-2.37-4.61-5.25-4.61h-1.41c-2.54,0-4.61,2.06-4.61,4.61h0c0,2.54,2.06,4.61,4.61,4.61h1.41c2.88,0,5.25-1.41,5.25-4.61Zm12.28-.51c0,8.32-5.25,15.36-14.33,15.36h-4.61c-2.54,0-4.61,2.06-4.61,4.61v4.09c0,2.54-2.06,4.61-4.61,4.61h-3.07c-2.54,0-4.61-2.06-4.61-4.61V34.64c0-2.54,2.06-4.61,4.61-4.61h14.84c11.2,0,16.38,6.01,16.38,14.33Z"/>
        <path class="cls-4" d="M38.84,44.78c0-3.14-2.37-4.61-5.25-4.61h-1.41c-2.54,0-4.61,2.06-4.61,4.61h0c0,2.54,2.06,4.61,4.61,4.61h1.41c2.88,0,5.25-1.41,5.25-4.61Zm12.28-.51c0,8.32-5.25,15.36-14.33,15.36h-4.61c-2.54,0-4.61,2.06-4.61,4.61v4.09c0,2.54-2.06,4.61-4.61,4.61h-3.07c-2.54,0-4.61-2.06-4.61-4.61V34.54c0-2.54,2.06-4.61,4.61-4.61h14.84c11.2,0,16.38,6.01,16.38,14.33Z"/>
        <path class="cls-4" d="M38.74,44.67c0-3.14-2.37-4.61-5.25-4.61h-1.41c-2.54,0-4.61,2.06-4.61,4.61h0c0,2.54,2.06,4.61,4.61,4.61h1.41c2.88,0,5.25-1.41,5.25-4.61Zm12.28-.51c0,8.32-5.25,15.36-14.33,15.36h-4.61c-2.54,0-4.61,2.06-4.61,4.61v4.09c0,2.54-2.06,4.61-4.61,4.61h-3.07c-2.54,0-4.61-2.06-4.61-4.61V34.43c0-2.54,2.06-4.61,4.61-4.61h14.84c11.2,0,16.38,6.01,16.38,14.33Z"/>
        <path class="cls-4" d="M38.63,44.57c0-3.14-2.37-4.61-5.25-4.61h-1.41c-2.54,0-4.61,2.06-4.61,4.61h0c0,2.54,2.06,4.61,4.61,4.61h1.41c2.88,0,5.25-1.41,5.25-4.61Zm12.28-.51c0,8.32-5.25,15.36-14.33,15.36h-4.61c-2.54,0-4.61,2.06-4.61,4.61v4.09c0,2.54-2.06,4.61-4.61,4.61h-3.07c-2.54,0-4.61-2.06-4.61-4.61V34.33c0-2.54,2.06-4.61,4.61-4.61h14.84c11.2,0,16.38,6.01,16.38,14.33Z"/>
        <path class="cls-4" d="M38.53,44.46c0-3.14-2.37-4.61-5.25-4.61h-1.41c-2.54,0-4.61,2.06-4.61,4.61h0c0,2.54,2.06,4.61,4.61,4.61h1.41c2.88,0,5.25-1.41,5.25-4.61Zm12.28-.51c0,8.32-5.25,15.36-14.33,15.36h-4.61c-2.54,0-4.61,2.06-4.61,4.61v4.09c0,2.54-2.06,4.61-4.61,4.61h-3.07c-2.54,0-4.61-2.06-4.61-4.61V34.22c0-2.54,2.06-4.61,4.61-4.61h14.84c11.2,0,16.38,6.01,16.38,14.33Z"/>
        <path class="cls-4" d="M38.42,44.36c0-3.14-2.37-4.61-5.25-4.61h-1.41c-2.54,0-4.61,2.06-4.61,4.61h0c0,2.54,2.06,4.61,4.61,4.61h1.41c2.88,0,5.25-1.41,5.25-4.61Zm12.28-.51c0,8.32-5.25,15.36-14.33,15.36h-4.61c-2.54,0-4.61,2.06-4.61,4.61v4.09c0,2.54-2.06,4.61-4.61,4.61h-3.07c-2.54,0-4.61-2.06-4.61-4.61V34.12c0-2.54,2.06-4.61,4.61-4.61h14.84c11.2,0,16.38,6.01,16.38,14.33Z"/>
        <path class="cls-4" d="M38.31,44.25c0-3.14-2.37-4.61-5.25-4.61h-1.41c-2.54,0-4.61,2.06-4.61,4.61h0c0,2.54,2.06,4.61,4.61,4.61h1.41c2.88,0,5.25-1.41,5.25-4.61Zm12.28-.51c0,8.32-5.25,15.36-14.33,15.36h-4.61c-2.54,0-4.61,2.06-4.61,4.61v4.09c0,2.54-2.06,4.61-4.61,4.61h-3.07c-2.54,0-4.61-2.06-4.61-4.61V34.01c0-2.54,2.06-4.61,4.61-4.61h14.84c11.2,0,16.38,6.01,16.38,14.33Z"/>
        <path class="cls-4" d="M38.21,44.15c0-3.14-2.37-4.61-5.25-4.61h-1.41c-2.54,0-4.61,2.06-4.61,4.61h0c0,2.54,2.06,4.61,4.61,4.61h1.41c2.88,0,5.25-1.41,5.25-4.61Zm12.28-.51c0,8.32-5.25,15.36-14.33,15.36h-4.61c-2.54,0-4.61,2.06-4.61,4.61v4.09c0,2.54-2.06,4.61-4.61,4.61h-3.07c-2.54,0-4.61-2.06-4.61-4.61V33.91c0-2.54,2.06-4.61,4.61-4.61h14.84c11.2,0,16.38,6.01,16.38,14.33Z"/>
        <path class="cls-4" d="M38.1,44.04c0-3.14-2.37-4.61-5.25-4.61h-1.41c-2.54,0-4.61,2.06-4.61,4.61h0c0,2.54,2.06,4.61,4.61,4.61h1.41c2.88,0,5.25-1.41,5.25-4.61Zm12.28-.51c0,8.32-5.25,15.36-14.33,15.36h-4.61c-2.54,0-4.61,2.06-4.61,4.61v4.09c0,2.54-2.06,4.61-4.61,4.61h-3.07c-2.54,0-4.61-2.06-4.61-4.61V33.8c0-2.54,2.06-4.61,4.61-4.61h14.84c11.2,0,16.38,6.01,16.38,14.33Z"/>
        <path class="cls-4" d="M37.99,43.94c0-3.14-2.37-4.61-5.25-4.61h-1.41c-2.54,0-4.61,2.06-4.61,4.61h0c0,2.54,2.06,4.61,4.61,4.61h1.41c2.88,0,5.25-1.41,5.25-4.61Zm12.28-.51c0,8.32-5.25,15.36-14.33,15.36h-4.61c-2.54,0-4.61,2.06-4.61,4.61v4.09c0,2.54-2.06,4.61-4.61,4.61h-3.07c-2.54,0-4.61-2.06-4.61-4.61V33.7c0-2.54,2.06-4.61,4.61-4.61h14.84c11.2,0,16.38,6.01,16.38,14.33Z"/>
        <path class="cls-4" d="M37.89,43.83c0-3.14-2.37-4.61-5.25-4.61h-1.41c-2.54,0-4.61,2.06-4.61,4.61h0c0,2.54,2.06,4.61,4.61,4.61h1.41c2.88,0,5.25-1.41,5.25-4.61Zm12.28-.51c0,8.32-5.25,15.36-14.33,15.36h-4.61c-2.54,0-4.61,2.06-4.61,4.61v4.09c0,2.54-2.06,4.61-4.61,4.61h-3.07c-2.54,0-4.61-2.06-4.61-4.61V33.59c0-2.54,2.06-4.61,4.61-4.61h14.84c11.2,0,16.38,6.01,16.38,14.33Z"/>
        <path class="cls-4" d="M37.78,43.73c0-3.14-2.37-4.61-5.25-4.61h-1.41c-2.54,0-4.61,2.06-4.61,4.61h0c0,2.54,2.06,4.61,4.61,4.61h1.41c2.88,0,5.25-1.41,5.25-4.61Zm12.28-.51c0,8.32-5.25,15.36-14.33,15.36h-4.61c-2.54,0-4.61,2.06-4.61,4.61v4.09c0,2.54-2.06,4.61-4.61,4.61h-3.07c-2.54,0-4.61-2.06-4.61-4.61V33.49c0-2.54,2.06-4.61,4.61-4.61h14.84c11.2,0,16.38,6.01,16.38,14.33Z"/>
        <path class="cls-4" d="M37.68,43.62c0-3.14-2.37-4.61-5.25-4.61h-1.41c-2.54,0-4.61,2.06-4.61,4.61h0c0,2.54,2.06,4.61,4.61,4.61h1.41c2.88,0,5.25-1.41,5.25-4.61Zm12.28-.51c0,8.32-5.25,15.36-14.33,15.36h-4.61c-2.54,0-4.61,2.06-4.61,4.61v4.09c0,2.54-2.06,4.61-4.61,4.61h-3.07c-2.54,0-4.61-2.06-4.61-4.61V33.39c0-2.54,2.06-4.61,4.61-4.61h14.84c11.2,0,16.38,6.01,16.38,14.33Z"/>
        <path class="cls-4" d="M37.57,43.52c0-3.14-2.37-4.61-5.25-4.61h-1.41c-2.54,0-4.61,2.06-4.61,4.61h0c0,2.54,2.06,4.61,4.61,4.61h1.41c2.88,0,5.25-1.41,5.25-4.61Zm12.28-.51c0,8.32-5.25,15.36-14.33,15.36h-4.61c-2.54,0-4.61,2.06-4.61,4.61v4.09c0,2.54-2.06,4.61-4.61,4.61h-3.07c-2.54,0-4.61-2.06-4.61-4.61V33.28c0-2.54,2.06-4.61,4.61-4.61h14.84c11.2,0,16.38,6.01,16.38,14.33Z"/>
        <path class="cls-4" d="M37.46,43.41c0-3.14-2.37-4.61-5.25-4.61h-1.41c-2.54,0-4.61,2.06-4.61,4.61h0c0,2.54,2.06,4.61,4.61,4.61h1.41c2.88,0,5.25-1.41,5.25-4.61Zm12.28-.51c0,8.32-5.25,15.36-14.33,15.36h-4.61c-2.54,0-4.61,2.06-4.61,4.61v4.09c0,2.54-2.06,4.61-4.61,4.61h-3.07c-2.54,0-4.61-2.06-4.61-4.61V33.18c0-2.54,2.06-4.61,4.61-4.61h14.84c11.2,0,16.38,6.01,16.38,14.33Z"/>
        <path class="cls-4" d="M37.36,43.31c0-3.14-2.37-4.61-5.25-4.61h-1.41c-2.54,0-4.61,2.06-4.61,4.61h0c0,2.54,2.06,4.61,4.61,4.61h1.41c2.88,0,5.25-1.41,5.25-4.61Zm12.28-.51c0,8.32-5.25,15.36-14.33,15.36h-4.61c-2.54,0-4.61,2.06-4.61,4.61v4.09c0,2.54-2.06,4.61-4.61,4.61h-3.07c-2.54,0-4.61-2.06-4.61-4.61V33.07c0-2.54,2.06-4.61,4.61-4.61h14.84c11.2,0,16.38,6.01,16.38,14.33Z"/>
        <path class="cls-4" d="M37.25,43.2c0-3.14-2.37-4.61-5.25-4.61h-1.41c-2.54,0-4.61,2.06-4.61,4.61h0c0,2.54,2.06,4.61,4.61,4.61h1.41c2.88,0,5.25-1.41,5.25-4.61Zm12.28-.51c0,8.32-5.25,15.36-14.33,15.36h-4.61c-2.54,0-4.61,2.06-4.61,4.61v4.09c0,2.54-2.06,4.61-4.61,4.61h-3.07c-2.54,0-4.61-2.06-4.61-4.61V32.97c0-2.54,2.06-4.61,4.61-4.61h14.84c11.2,0,16.38,6.01,16.38,14.33Z"/>
        <path class="cls-4" d="M37.14,43.1c0-3.14-2.37-4.61-5.25-4.61h-1.41c-2.54,0-4.61,2.06-4.61,4.61h0c0,2.54,2.06,4.61,4.61,4.61h1.41c2.88,0,5.25-1.41,5.25-4.61Zm12.28-.51c0,8.32-5.25,15.36-14.33,15.36h-4.61c-2.54,0-4.61,2.06-4.61,4.61v4.09c0,2.54-2.06,4.61-4.61,4.61h-3.07c-2.54,0-4.61-2.06-4.61-4.61V32.86c0-2.54,2.06-4.61,4.61-4.61h14.84c11.2,0,16.38,6.01,16.38,14.33Z"/>
        <path class="cls-4" d="M37.04,42.99c0-3.14-2.37-4.61-5.25-4.61h-1.41c-2.54,0-4.61,2.06-4.61,4.61h0c0,2.54,2.06,4.61,4.61,4.61h1.41c2.88,0,5.25-1.41,5.25-4.61Zm12.28-.51c0,8.32-5.25,15.36-14.33,15.36h-4.61c-2.54,0-4.61,2.06-4.61,4.61v4.09c0,2.54-2.06,4.61-4.61,4.61h-3.07c-2.54,0-4.61-2.06-4.61-4.61V32.76c0-2.54,2.06-4.61,4.61-4.61h14.84c11.2,0,16.38,6.01,16.38,14.33Z"/>
        <path class="cls-4" d="M36.93,42.89c0-3.14-2.37-4.61-5.25-4.61h-1.41c-2.54,0-4.61,2.06-4.61,4.61h0c0,2.54,2.06,4.61,4.61,4.61h1.41c2.88,0,5.25-1.41,5.25-4.61Zm12.28-.51c0,8.32-5.25,15.36-14.33,15.36h-4.61c-2.54,0-4.61,2.06-4.61,4.61v4.09c0,2.54-2.06,4.61-4.61,4.61h-3.07c-2.54,0-4.61-2.06-4.61-4.61V32.65c0-2.54,2.06-4.61,4.61-4.61h14.84c11.2,0,16.38,6.01,16.38,14.33Z"/>
        <path class="cls-4" d="M36.83,42.78c0-3.14-2.37-4.61-5.25-4.61h-1.41c-2.54,0-4.61,2.06-4.61,4.61h0c0,2.54,2.06,4.61,4.61,4.61h1.41c2.88,0,5.25-1.41,5.25-4.61Zm12.28-.51c0,8.32-5.25,15.36-14.33,15.36h-4.61c-2.54,0-4.61,2.06-4.61,4.61v4.09c0,2.54-2.06,4.61-4.61,4.61h-3.07c-2.54,0-4.61-2.06-4.61-4.61V32.55c0-2.54,2.06-4.61,4.61-4.61h14.84c11.2,0,16.38,6.01,16.38,14.33Z"/>
        <path class="cls-4" d="M36.72,42.68c0-3.14-2.37-4.61-5.25-4.61h-1.41c-2.54,0-4.61,2.06-4.61,4.61h0c0,2.54,2.06,4.61,4.61,4.61h1.41c2.88,0,5.25-1.41,5.25-4.61Zm12.28-.51c0,8.32-5.25,15.36-14.33,15.36h-4.61c-2.54,0-4.61,2.06-4.61,4.61v4.09c0,2.54-2.06,4.61-4.61,4.61h-3.07c-2.54,0-4.61-2.06-4.61-4.61V32.44c0-2.54,2.06-4.61,4.61-4.61h14.84c11.2,0,16.38,6.01,16.38,14.33Z"/>
        <path class="cls-4" d="M36.61,42.57c0-3.14-2.37-4.61-5.25-4.61h-1.41c-2.54,0-4.61,2.06-4.61,4.61h0c0,2.54,2.06,4.61,4.61,4.61h1.41c2.88,0,5.25-1.41,5.25-4.61Zm12.28-.51c0,8.32-5.25,15.36-14.33,15.36h-4.61c-2.54,0-4.61,2.06-4.61,4.61v4.09c0,2.54-2.06,4.61-4.61,4.61h-3.07c-2.54,0-4.61-2.06-4.61-4.61V32.34c0-2.54,2.06-4.61,4.61-4.61h14.84c11.2,0,16.38,6.01,16.38,14.33Z"/>
        <path class="cls-4" d="M36.51,42.47c0-3.14-2.37-4.61-5.25-4.61h-1.41c-2.54,0-4.61,2.06-4.61,4.61h0c0,2.54,2.06,4.61,4.61,4.61h1.41c2.88,0,5.25-1.41,5.25-4.61Zm12.28-.51c0,8.32-5.25,15.36-14.33,15.36h-4.61c-2.54,0-4.61,2.06-4.61,4.61v4.09c0,2.54-2.06,4.61-4.61,4.61h-3.07c-2.54,0-4.61-2.06-4.61-4.61V32.23c0-2.54,2.06-4.61,4.61-4.61h14.84c11.2,0,16.38,6.01,16.38,14.33Z"/>
        <path class="cls-4" d="M36.4,42.36c0-3.14-2.37-4.61-5.25-4.61h-1.41c-2.54,0-4.61,2.06-4.61,4.61h0c0,2.54,2.06,4.61,4.61,4.61h1.41c2.88,0,5.25-1.41,5.25-4.61Zm12.28-.51c0,8.32-5.25,15.36-14.33,15.36h-4.61c-2.54,0-4.61,2.06-4.61,4.61v4.09c0,2.54-2.06,4.61-4.61,4.61h-3.07c-2.54,0-4.61-2.06-4.61-4.61V32.13c0-2.54,2.06-4.61,4.61-4.61h14.84c11.2,0,16.38,6.01,16.38,14.33Z"/>
        <path class="cls-4" d="M36.29,42.26c0-3.14-2.37-4.61-5.25-4.61h-1.41c-2.54,0-4.61,2.06-4.61,4.61h0c0,2.54,2.06,4.61,4.61,4.61h1.41c2.88,0,5.25-1.41,5.25-4.61Zm12.28-.51c0,8.32-5.25,15.36-14.33,15.36h-4.61c-2.54,0-4.61,2.06-4.61,4.61v4.09c0,2.54-2.06,4.61-4.61,4.61h-3.07c-2.54,0-4.61-2.06-4.61-4.61V32.02c0-2.54,2.06-4.61,4.61-4.61h14.84c11.2,0,16.38,6.01,16.38,14.33Z"/>
        <path class="cls-4" d="M36.19,42.15c0-3.14-2.37-4.61-5.25-4.61h-1.41c-2.54,0-4.61,2.06-4.61,4.61h0c0,2.54,2.06,4.61,4.61,4.61h1.41c2.88,0,5.25-1.41,5.25-4.61Zm12.28-.51c0,8.32-5.25,15.36-14.33,15.36h-4.61c-2.54,0-4.61,2.06-4.61,4.61v4.09c0,2.54-2.06,4.61-4.61,4.61h-3.07c-2.54,0-4.61-2.06-4.61-4.61V31.92c0-2.54,2.06-4.61,4.61-4.61h14.84c11.2,0,16.38,6.01,16.38,14.33Z"/>
        <path class="cls-4" d="M36.08,42.05c0-3.14-2.37-4.61-5.25-4.61h-1.41c-2.54,0-4.61,2.06-4.61,4.61h0c0,2.54,2.06,4.61,4.61,4.61h1.41c2.88,0,5.25-1.41,5.25-4.61Zm12.28-.51c0,8.32-5.25,15.36-14.33,15.36h-4.61c-2.54,0-4.61,2.06-4.61,4.61v4.09c0,2.54-2.06,4.61-4.61,4.61h-3.07c-2.54,0-4.61-2.06-4.61-4.61V31.81c0-2.54,2.06-4.61,4.61-4.61h14.84c11.2,0,16.38,6.01,16.38,14.33Z"/>
        <path class="cls-4" d="M35.97,41.94c0-3.14-2.37-4.61-5.25-4.61h-1.41c-2.54,0-4.61,2.06-4.61,4.61h0c0,2.54,2.06,4.61,4.61,4.61h1.41c2.88,0,5.25-1.41,5.25-4.61Zm12.28-.51c0,8.32-5.25,15.36-14.33,15.36h-4.61c-2.54,0-4.61,2.06-4.61,4.61v4.09c0,2.54-2.06,4.61-4.61,4.61h-3.07c-2.54,0-4.61-2.06-4.61-4.61V31.71c0-2.54,2.06-4.61,4.61-4.61h14.84c11.2,0,16.38,6.01,16.38,14.33Z"/>
        <path class="cls-4" d="M35.87,41.84c0-3.14-2.37-4.61-5.25-4.61h-1.41c-2.54,0-4.61,2.06-4.61,4.61h0c0,2.54,2.06,4.61,4.61,4.61h1.41c2.88,0,5.25-1.41,5.25-4.61Zm12.28-.51c0,8.32-5.25,15.36-14.33,15.36h-4.61c-2.54,0-4.61,2.06-4.61,4.61v4.09c0,2.54-2.06,4.61-4.61,4.61h-3.07c-2.54,0-4.61-2.06-4.61-4.61V31.6c0-2.54,2.06-4.61,4.61-4.61h14.84c11.2,0,16.38,6.01,16.38,14.33Z"/>
        <path class="cls-4" d="M35.76,41.73c0-3.14-2.37-4.61-5.25-4.61h-1.41c-2.54,0-4.61,2.06-4.61,4.61h0c0,2.54,2.06,4.61,4.61,4.61h1.41c2.88,0,5.25-1.41,5.25-4.61Zm12.28-.51c0,8.32-5.25,15.36-14.33,15.36h-4.61c-2.54,0-4.61,2.06-4.61,4.61v4.09c0,2.54-2.06,4.61-4.61,4.61h-3.07c-2.54,0-4.61-2.06-4.61-4.61V31.5c0-2.54,2.06-4.61,4.61-4.61h14.84c11.2,0,16.38,6.01,16.38,14.33Z"/>
        <path class="cls-4" d="M35.66,41.63c0-3.14-2.37-4.61-5.25-4.61h-1.41c-2.54,0-4.61,2.06-4.61,4.61h0c0,2.54,2.06,4.61,4.61,4.61h1.41c2.88,0,5.25-1.41,5.25-4.61Zm12.28-.51c0,8.32-5.25,15.36-14.33,15.36h-4.61c-2.54,0-4.61,2.06-4.61,4.61v4.09c0,2.54-2.06,4.61-4.61,4.61h-3.07c-2.54,0-4.61-2.06-4.61-4.61V31.39c0-2.54,2.06-4.61,4.61-4.61h14.84c11.2,0,16.38,6.01,16.38,14.33Z"/>
        <path class="cls-4" d="M35.55,41.52c0-3.14-2.37-4.61-5.25-4.61h-1.41c-2.54,0-4.61,2.06-4.61,4.61h0c0,2.54,2.06,4.61,4.61,4.61h1.41c2.88,0,5.25-1.41,5.25-4.61Zm12.28-.51c0,8.32-5.25,15.36-14.33,15.36h-4.61c-2.54,0-4.61,2.06-4.61,4.61v4.09c0,2.54-2.06,4.61-4.61,4.61h-3.07c-2.54,0-4.61-2.06-4.61-4.61V31.29c0-2.54,2.06-4.61,4.61-4.61h14.84c11.2,0,16.38,6.01,16.38,14.33Z"/>
        <path class="cls-4" d="M35.44,41.42c0-3.14-2.37-4.61-5.25-4.61h-1.41c-2.54,0-4.61,2.06-4.61,4.61h0c0,2.54,2.06,4.61,4.61,4.61h1.41c2.88,0,5.25-1.41,5.25-4.61Zm12.28-.51c0,8.32-5.25,15.36-14.33,15.36h-4.61c-2.54,0-4.61,2.06-4.61,4.61v4.09c0,2.54-2.06,4.61-4.61,4.61h-3.07c-2.54,0-4.61-2.06-4.61-4.61V31.18c0-2.54,2.06-4.61,4.61-4.61h14.84c11.2,0,16.38,6.01,16.38,14.33Z"/>
        <path class="cls-4" d="M35.34,41.31c0-3.14-2.37-4.61-5.25-4.61h-1.41c-2.54,0-4.61,2.06-4.61,4.61h0c0,2.54,2.06,4.61,4.61,4.61h1.41c2.88,0,5.25-1.41,5.25-4.61Zm12.28-.51c0,8.32-5.25,15.36-14.33,15.36h-4.61c-2.54,0-4.61,2.06-4.61,4.61v4.09c0,2.54-2.06,4.61-4.61,4.61h-3.07c-2.54,0-4.61-2.06-4.61-4.61V31.08c0-2.54,2.06-4.61,4.61-4.61h14.84c11.2,0,16.38,6.01,16.38,14.33Z"/>
        <path class="cls-4" d="M35.23,41.21c0-3.14-2.37-4.61-5.25-4.61h-1.41c-2.54,0-4.61,2.06-4.61,4.61h0c0,2.54,2.06,4.61,4.61,4.61h1.41c2.88,0,5.25-1.41,5.25-4.61Zm12.28-.51c0,8.32-5.25,15.36-14.33,15.36h-4.61c-2.54,0-4.61,2.06-4.61,4.61v4.09c0,2.54-2.06,4.61-4.61,4.61h-3.07c-2.54,0-4.61-2.06-4.61-4.61V30.97c0-2.54,2.06-4.61,4.61-4.61h14.84c11.2,0,16.38,6.01,16.38,14.33Z"/>
        <path class="cls-4" d="M35.12,41.11c0-3.14-2.37-4.61-5.25-4.61h-1.41c-2.54,0-4.61,2.06-4.61,4.61h0c0,2.54,2.06,4.61,4.61,4.61h1.41c2.88,0,5.25-1.41,5.25-4.61Zm12.28-.51c0,8.32-5.25,15.36-14.33,15.36h-4.61c-2.54,0-4.61,2.06-4.61,4.61v4.09c0,2.54-2.06,4.61-4.61,4.61h-3.07c-2.54,0-4.61-2.06-4.61-4.61V30.87c0-2.54,2.06-4.61,4.61-4.61h14.84c11.2,0,16.38,6.01,16.38,14.33Z"/>
      </g>
      <g>
        <path class="cls-4" d="M98.56,72.05v4.34c0,1.91-1.55,3.46-3.46,3.46h-21.75c-1.91,0-3.46-1.55-3.46-3.46V40.31c0-1.91,1.55-3.46,3.46-3.46h5.37c1.91,0,3.46,1.55,3.46,3.46v24.82c0,1.91,1.55,3.46,3.46,3.46h9.46c1.91,0,3.46,1.55,3.46,3.46Z"/>
        <path class="cls-4" d="M98.46,71.94v4.34c0,1.91-1.55,3.46-3.46,3.46h-21.75c-1.91,0-3.46-1.55-3.46-3.46V40.21c0-1.91,1.55-3.46,3.46-3.46h5.37c1.91,0,3.46,1.55,3.46,3.46v24.82c0,1.91,1.55,3.46,3.46,3.46h9.46c1.91,0,3.46,1.55,3.46,3.46Z"/>
        <path class="cls-4" d="M98.35,71.84v4.34c0,1.91-1.55,3.46-3.46,3.46h-21.75c-1.91,0-3.46-1.55-3.46-3.46V40.1c0-1.91,1.55-3.46,3.46-3.46h5.37c1.91,0,3.46,1.55,3.46,3.46v24.82c0,1.91,1.55,3.46,3.46,3.46h9.46c1.91,0,3.46,1.55,3.46,3.46Z"/>
        <path class="cls-4" d="M98.24,71.73v4.34c0,1.91-1.55,3.46-3.46,3.46h-21.75c-1.91,0-3.46-1.55-3.46-3.46V40c0-1.91,1.55-3.46,3.46-3.46h5.37c1.91,0,3.46,1.55,3.46,3.46v24.82c0,1.91,1.55,3.46,3.46,3.46h9.46c1.91,0,3.46,1.55,3.46,3.46Z"/>
        <path class="cls-4" d="M98.14,71.63v4.34c0,1.91-1.55,3.46-3.46,3.46h-21.75c-1.91,0-3.46-1.55-3.46-3.46V39.89c0-1.91,1.55-3.46,3.46-3.46h5.37c1.91,0,3.46,1.55,3.46,3.46v24.82c0,1.91,1.55,3.46,3.46,3.46h9.46c1.91,0,3.46,1.55,3.46,3.46Z"/>
        <path class="cls-4" d="M98.03,71.52v4.34c0,1.91-1.55,3.46-3.46,3.46h-21.75c-1.91,0-3.46-1.55-3.46-3.46V39.79c0-1.91,1.55-3.46,3.46-3.46h5.37c1.91,0,3.46,1.55,3.46,3.46v24.82c0,1.91,1.55,3.46,3.46,3.46h9.46c1.91,0,3.46,1.55,3.46,3.46Z"/>
        <path class="cls-4" d="M97.93,71.42v4.34c0,1.91-1.55,3.46-3.46,3.46h-21.75c-1.91,0-3.46-1.55-3.46-3.46V39.68c0-1.91,1.55-3.46,3.46-3.46h5.37c1.91,0,3.46,1.55,3.46,3.46v24.82c0,1.91,1.55,3.46,3.46,3.46h9.46c1.91,0,3.46,1.55,3.46,3.46Z"/>
        <path class="cls-4" d="M97.82,71.31v4.34c0,1.91-1.55,3.46-3.46,3.46h-21.75c-1.91,0-3.46-1.55-3.46-3.46V39.58c0-1.91,1.55-3.46,3.46-3.46h5.37c1.91,0,3.46,1.55,3.46,3.46v24.82c0,1.91,1.55,3.46,3.46,3.46h9.46c1.91,0,3.46,1.55,3.46,3.46Z"/>
        <path class="cls-4" d="M97.71,71.21v4.34c0,1.91-1.55,3.46-3.46,3.46h-21.75c-1.91,0-3.46-1.55-3.46-3.46V39.47c0-1.91,1.55-3.46,3.46-3.46h5.37c1.91,0,3.46,1.55,3.46,3.46v24.82c0,1.91,1.55,3.46,3.46,3.46h9.46c1.91,0,3.46,1.55,3.46,3.46Z"/>
        <path class="cls-4" d="M97.61,71.1v4.34c0,1.91-1.55,3.46-3.46,3.46h-21.75c-1.91,0-3.46-1.55-3.46-3.46V39.37c0-1.91,1.55-3.46,3.46-3.46h5.37c1.91,0,3.46,1.55,3.46,3.46v24.82c0,1.91,1.55,3.46,3.46,3.46h9.46c1.91,0,3.46,1.55,3.46,3.46Z"/>
        <path class="cls-4" d="M97.5,71v4.34c0,1.91-1.55,3.46-3.46,3.46h-21.75c-1.91,0-3.46-1.55-3.46-3.46V39.26c0-1.91,1.55-3.46,3.46-3.46h5.37c1.91,0,3.46,1.55,3.46,3.46v24.82c0,1.91,1.55,3.46,3.46,3.46h9.46c1.91,0,3.46,1.55,3.46,3.46Z"/>
        <path class="cls-4" d="M97.39,70.89v4.34c0,1.91-1.55,3.46-3.46,3.46h-21.75c-1.91,0-3.46-1.55-3.46-3.46V39.16c0-1.91,1.55-3.46,3.46-3.46h5.37c1.91,0,3.46,1.55,3.46,3.46v24.82c0,1.91,1.55,3.46,3.46,3.46h9.46c1.91,0,3.46,1.55,3.46,3.46Z"/>
        <path class="cls-4" d="M97.29,70.79v4.34c0,1.91-1.55,3.46-3.46,3.46h-21.75c-1.91,0-3.46-1.55-3.46-3.46V39.05c0-1.91,1.55-3.46,3.46-3.46h5.37c1.91,0,3.46,1.55,3.46,3.46v24.82c0,1.91,1.55,3.46,3.46,3.46h9.46c1.91,0,3.46,1.55,3.46,3.46Z"/>
        <path class="cls-4" d="M97.18,70.68v4.34c0,1.91-1.55,3.46-3.46,3.46h-21.75c-1.91,0-3.46-1.55-3.46-3.46V38.95c0-1.91,1.55-3.46,3.46-3.46h5.37c1.91,0,3.46,1.55,3.46,3.46v24.82c0,1.91,1.55,3.46,3.46,3.46h9.46c1.91,0,3.46,1.55,3.46,3.46Z"/>
        <path class="cls-4" d="M97.08,70.58v4.34c0,1.91-1.55,3.46-3.46,3.46h-21.75c-1.91,0-3.46-1.55-3.46-3.46V38.84c0-1.91,1.55-3.46,3.46-3.46h5.37c1.91,0,3.46,1.55,3.46,3.46v24.82c0,1.91,1.55,3.46,3.46,3.46h9.46c1.91,0,3.46,1.55,3.46,3.46Z"/>
        <path class="cls-4" d="M96.97,70.47v4.34c0,1.91-1.55,3.46-3.46,3.46h-21.75c-1.91,0-3.46-1.55-3.46-3.46V38.74c0-1.91,1.55-3.46,3.46-3.46h5.37c1.91,0,3.46,1.55,3.46,3.46v24.82c0,1.91,1.55,3.46,3.46,3.46h9.46c1.91,0,3.46,1.55,3.46,3.46Z"/>
        <path class="cls-4" d="M96.86,70.37v4.34c0,1.91-1.55,3.46-3.46,3.46h-21.75c-1.91,0-3.46-1.55-3.46-3.46V38.63c0-1.91,1.55-3.46,3.46-3.46h5.37c1.91,0,3.46,1.55,3.46,3.46v24.82c0,1.91,1.55,3.46,3.46,3.46h9.46c1.91,0,3.46,1.55,3.46,3.46Z"/>
        <path class="cls-4" d="M96.76,70.26v4.34c0,1.91-1.55,3.46-3.46,3.46h-21.75c-1.91,0-3.46-1.55-3.46-3.46V38.53c0-1.91,1.55-3.46,3.46-3.46h5.37c1.91,0,3.46,1.55,3.46,3.46v24.82c0,1.91,1.55,3.46,3.46,3.46h9.46c1.91,0,3.46,1.55,3.46,3.46Z"/>
        <path class="cls-4" d="M96.65,70.16v4.34c0,1.91-1.55,3.46-3.46,3.46h-21.75c-1.91,0-3.46-1.55-3.46-3.46V38.42c0-1.91,1.55-3.46,3.46-3.46h5.37c1.91,0,3.46,1.55,3.46,3.46v24.82c0,1.91,1.55,3.46,3.46,3.46h9.46c1.91,0,3.46,1.55,3.46,3.46Z"/>
        <path class="cls-4" d="M96.54,70.05v4.34c0,1.91-1.55,3.46-3.46,3.46h-21.75c-1.91,0-3.46-1.55-3.46-3.46V38.32c0-1.91,1.55-3.46,3.46-3.46h5.37c1.91,0,3.46,1.55,3.46,3.46v24.82c0,1.91,1.55,3.46,3.46,3.46h9.46c1.91,0,3.46,1.55,3.46,3.46Z"/>
        <path class="cls-4" d="M96.44,69.95v4.34c0,1.91-1.55,3.46-3.46,3.46h-21.75c-1.91,0-3.46-1.55-3.46-3.46V38.22c0-1.91,1.55-3.46,3.46-3.46h5.37c1.91,0,3.46,1.55,3.46,3.46v24.82c0,1.91,1.55,3.46,3.46,3.46h9.46c1.91,0,3.46,1.55,3.46,3.46Z"/>
        <path class="cls-4" d="M96.33,69.84v4.34c0,1.91-1.55,3.46-3.46,3.46h-21.75c-1.91,0-3.46-1.55-3.46-3.46V38.11c0-1.91,1.55-3.46,3.46-3.46h5.37c1.91,0,3.46,1.55,3.46,3.46v24.82c0,1.91,1.55,3.46,3.46,3.46h9.46c1.91,0,3.46,1.55,3.46,3.46Z"/>
        <path class="cls-4" d="M96.23,69.74v4.34c0,1.91-1.55,3.46-3.46,3.46h-21.75c-1.91,0-3.46-1.55-3.46-3.46V38.01c0-1.91,1.55-3.46,3.46-3.46h5.37c1.91,0,3.46,1.55,3.46,3.46v24.82c0,1.91,1.55,3.46,3.46,3.46h9.46c1.91,0,3.46,1.55,3.46,3.46Z"/>
        <path class="cls-4" d="M96.12,69.63v4.34c0,1.91-1.55,3.46-3.46,3.46h-21.75c-1.91,0-3.46-1.55-3.46-3.46V37.9c0-1.91,1.55-3.46,3.46-3.46h5.37c1.91,0,3.46,1.55,3.46,3.46v24.82c0,1.91,1.55,3.46,3.46,3.46h9.46c1.91,0,3.46,1.55,3.46,3.46Z"/>
        <path class="cls-4" d="M96.01,69.53v4.34c0,1.91-1.55,3.46-3.46,3.46h-21.75c-1.91,0-3.46-1.55-3.46-3.46V37.8c0-1.91,1.55-3.46,3.46-3.46h5.37c1.91,0,3.46,1.55,3.46,3.46v24.82c0,1.91,1.55,3.46,3.46,3.46h9.46c1.91,0,3.46,1.55,3.46,3.46Z"/>
        <path class="cls-4" d="M95.91,69.43v4.34c0,1.91-1.55,3.46-3.46,3.46h-21.75c-1.91,0-3.46-1.55-3.46-3.46V37.69c0-1.91,1.55-3.46,3.46-3.46h5.37c1.91,0,3.46,1.55,3.46,3.46v24.82c0,1.91,1.55,3.46,3.46,3.46h9.46c1.91,0,3.46,1.55,3.46,3.46Z"/>
        <path class="cls-4" d="M95.8,69.32v4.34c0,1.91-1.55,3.46-3.46,3.46h-21.75c-1.91,0-3.46-1.55-3.46-3.46V37.59c0-1.91,1.55-3.46,3.46-3.46h5.37c1.91,0,3.46,1.55,3.46,3.46v24.82c0,1.91,1.55,3.46,3.46,3.46h9.46c1.91,0,3.46,1.55,3.46,3.46Z"/>
        <path class="cls-4" d="M95.69,69.22v4.34c0,1.91-1.55,3.46-3.46,3.46h-21.75c-1.91,0-3.46-1.55-3.46-3.46V37.48c0-1.91,1.55-3.46,3.46-3.46h5.37c1.91,0,3.46,1.55,3.46,3.46v24.82c0,1.91,1.55,3.46,3.46,3.46h9.46c1.91,0,3.46,1.55,3.46,3.46Z"/>
        <path class="cls-4" d="M95.59,69.11v4.34c0,1.91-1.55,3.46-3.46,3.46h-21.75c-1.91,0-3.46-1.55-3.46-3.46V37.38c0-1.91,1.55-3.46,3.46-3.46h5.37c1.91,0,3.46,1.55,3.46,3.46v24.82c0,1.91,1.55,3.46,3.46,3.46h9.46c1.91,0,3.46,1.55,3.46,3.46Z"/>
        <path class="cls-4" d="M95.48,69.01v4.34c0,1.91-1.55,3.46-3.46,3.46h-21.75c-1.91,0-3.46-1.55-3.46-3.46V37.27c0-1.91,1.55-3.46,3.46-3.46h5.37c1.91,0,3.46,1.55,3.46,3.46v24.82c0,1.91,1.55,3.46,3.46,3.46h9.46c1.91,0,3.46,1.55,3.46,3.46Z"/>
        <path class="cls-4" d="M95.37,68.9v4.34c0,1.91-1.55,3.46-3.46,3.46h-21.75c-1.91,0-3.46-1.55-3.46-3.46V37.17c0-1.91,1.55-3.46,3.46-3.46h5.37c1.91,0,3.46,1.55,3.46,3.46v24.82c0,1.91,1.55,3.46,3.46,3.46h9.46c1.91,0,3.46,1.55,3.46,3.46Z"/>
        <path class="cls-4" d="M95.27,68.8v4.34c0,1.91-1.55,3.46-3.46,3.46h-21.75c-1.91,0-3.46-1.55-3.46-3.46V37.06c0-1.91,1.55-3.46,3.46-3.46h5.37c1.91,0,3.46,1.55,3.46,3.46v24.82c0,1.91,1.55,3.46,3.46,3.46h9.46c1.91,0,3.46,1.55,3.46,3.46Z"/>
        <path class="cls-4" d="M95.16,68.69v4.34c0,1.91-1.55,3.46-3.46,3.46h-21.75c-1.91,0-3.46-1.55-3.46-3.46V36.96c0-1.91,1.55-3.46,3.46-3.46h5.37c1.91,0,3.46,1.55,3.46,3.46v24.82c0,1.91,1.55,3.46,3.46,3.46h9.46c1.91,0,3.46,1.55,3.46,3.46Z"/>
        <path class="cls-4" d="M95.06,68.59v4.34c0,1.91-1.55,3.46-3.46,3.46h-21.75c-1.91,0-3.46-1.55-3.46-3.46V36.85c0-1.91,1.55-3.46,3.46-3.46h5.37c1.91,0,3.46,1.55,3.46,3.46v24.82c0,1.91,1.55,3.46,3.46,3.46h9.46c1.91,0,3.46,1.55,3.46,3.46Z"/>
        <path class="cls-4" d="M94.95,68.48v4.34c0,1.91-1.55,3.46-3.46,3.46h-21.75c-1.91,0-3.46-1.55-3.46-3.46V36.75c0-1.91,1.55-3.46,3.46-3.46h5.37c1.91,0,3.46,1.55,3.46,3.46v24.82c0,1.91,1.55,3.46,3.46,3.46h9.46c1.91,0,3.46,1.55,3.46,3.46Z"/>
        <path class="cls-4" d="M94.84,68.38v4.34c0,1.91-1.55,3.46-3.46,3.46h-21.75c-1.91,0-3.46-1.55-3.46-3.46V36.64c0-1.91,1.55-3.46,3.46-3.46h5.37c1.91,0,3.46,1.55,3.46,3.46v24.82c0,1.91,1.55,3.46,3.46,3.46h9.46c1.91,0,3.46,1.55,3.46,3.46Z"/>
        <path class="cls-4" d="M94.74,68.27v4.34c0,1.91-1.55,3.46-3.46,3.46h-21.75c-1.91,0-3.46-1.55-3.46-3.46V36.54c0-1.91,1.55-3.46,3.46-3.46h5.37c1.91,0,3.46,1.55,3.46,3.46v24.82c0,1.91,1.55,3.46,3.46,3.46h9.46c1.91,0,3.46,1.55,3.46,3.46Z"/>
        <path class="cls-4" d="M94.63,68.17v4.34c0,1.91-1.55,3.46-3.46,3.46h-21.75c-1.91,0-3.46-1.55-3.46-3.46V36.43c0-1.91,1.55-3.46,3.46-3.46h5.37c1.91,0,3.46,1.55,3.46,3.46v24.82c0,1.91,1.55,3.46,3.46,3.46h9.46c1.91,0,3.46,1.55,3.46,3.46Z"/>
        <path class="cls-4" d="M94.52,68.06v4.34c0,1.91-1.55,3.46-3.46,3.46h-21.75c-1.91,0-3.46-1.55-3.46-3.46V36.33c0-1.91,1.55-3.46,3.46-3.46h5.37c1.91,0,3.46,1.55,3.46,3.46v24.82c0,1.91,1.55,3.46,3.46,3.46h9.46c1.91,0,3.46,1.55,3.46,3.46Z"/>
        <path class="cls-4" d="M94.42,67.96v4.34c0,1.91-1.55,3.46-3.46,3.46h-21.75c-1.91,0-3.46-1.55-3.46-3.46V36.22c0-1.91,1.55-3.46,3.46-3.46h5.37c1.91,0,3.46,1.55,3.46,3.46v24.82c0,1.91,1.55,3.46,3.46,3.46h9.46c1.91,0,3.46,1.55,3.46,3.46Z"/>
        <path class="cls-4" d="M94.31,67.85v4.34c0,1.91-1.55,3.46-3.46,3.46h-21.75c-1.91,0-3.46-1.55-3.46-3.46V36.12c0-1.91,1.55-3.46,3.46-3.46h5.37c1.91,0,3.46,1.55,3.46,3.46v24.82c0,1.91,1.55,3.46,3.46,3.46h9.46c1.91,0,3.46,1.55,3.46,3.46Z"/>
        <path class="cls-4" d="M94.21,67.75v4.34c0,1.91-1.55,3.46-3.46,3.46h-21.75c-1.91,0-3.46-1.55-3.46-3.46V36.01c0-1.91,1.55-3.46,3.46-3.46h5.37c1.91,0,3.46,1.55,3.46,3.46v24.82c0,1.91,1.55,3.46,3.46,3.46h9.46c1.91,0,3.46,1.55,3.46,3.46Z"/>
        <path class="cls-4" d="M94.1,67.64v4.34c0,1.91-1.55,3.46-3.46,3.46h-21.75c-1.91,0-3.46-1.55-3.46-3.46V35.91c0-1.91,1.55-3.46,3.46-3.46h5.37c1.91,0,3.46,1.55,3.46,3.46v24.82c0,1.91,1.55,3.46,3.46,3.46h9.46c1.91,0,3.46,1.55,3.46,3.46Z"/>
        <path class="cls-4" d="M93.99,67.54v4.34c0,1.91-1.55,3.46-3.46,3.46h-21.75c-1.91,0-3.46-1.55-3.46-3.46V35.8c0-1.91,1.55-3.46,3.46-3.46h5.37c1.91,0,3.46,1.55,3.46,3.46v24.82c0,1.91,1.55,3.46,3.46,3.46h9.46c1.91,0,3.46,1.55,3.46,3.46Z"/>
        <path class="cls-4" d="M93.89,67.43v4.34c0,1.91-1.55,3.46-3.46,3.46h-21.75c-1.91,0-3.46-1.55-3.46-3.46V35.7c0-1.91,1.55-3.46,3.46-3.46h5.37c1.91,0,3.46,1.55,3.46,3.46v24.82c0,1.91,1.55,3.46,3.46,3.46h9.46c1.91,0,3.46,1.55,3.46,3.46Z"/>
        <path class="cls-4" d="M93.78,67.33v4.34c0,1.91-1.55,3.46-3.46,3.46h-21.75c-1.91,0-3.46-1.55-3.46-3.46V35.59c0-1.91,1.55-3.46,3.46-3.46h5.37c1.91,0,3.46,1.55,3.46,3.46v24.82c0,1.91,1.55,3.46,3.46,3.46h9.46c1.91,0,3.46,1.55,3.46,3.46Z"/>
        <path class="cls-4" d="M93.67,67.22v4.34c0,1.91-1.55,3.46-3.46,3.46h-21.75c-1.91,0-3.46-1.55-3.46-3.46V35.49c0-1.91,1.55-3.46,3.46-3.46h5.37c1.91,0,3.46,1.55,3.46,3.46v24.82c0,1.91,1.55,3.46,3.46,3.46h9.46c1.91,0,3.46,1.55,3.46,3.46Z"/>
        <path class="cls-4" d="M93.57,67.12v4.34c0,1.91-1.55,3.46-3.46,3.46h-21.75c-1.91,0-3.46-1.55-3.46-3.46V35.38c0-1.91,1.55-3.46,3.46-3.46h5.37c1.91,0,3.46,1.55,3.46,3.46v24.82c0,1.91,1.55,3.46,3.46,3.46h9.46c1.91,0,3.46,1.55,3.46,3.46Z"/>
        <path class="cls-4" d="M93.46,67.01v4.34c0,1.91-1.55,3.46-3.46,3.46h-21.75c-1.91,0-3.46-1.55-3.46-3.46V35.28c0-1.91,1.55-3.46,3.46-3.46h5.37c1.91,0,3.46,1.55,3.46,3.46v24.82c0,1.91,1.55,3.46,3.46,3.46h9.46c1.91,0,3.46,1.55,3.46,3.46Z"/>
        <path class="cls-4" d="M93.36,66.91v4.34c0,1.91-1.55,3.46-3.46,3.46h-21.75c-1.91,0-3.46-1.55-3.46-3.46V35.17c0-1.91,1.55-3.46,3.46-3.46h5.37c1.91,0,3.46,1.55,3.46,3.46v24.82c0,1.91,1.55,3.46,3.46,3.46h9.46c1.91,0,3.46,1.55,3.46,3.46Z"/>
        <path class="cls-4" d="M93.25,66.8v4.34c0,1.91-1.55,3.46-3.46,3.46h-21.75c-1.91,0-3.46-1.55-3.46-3.46V35.07c0-1.91,1.55-3.46,3.46-3.46h5.37c1.91,0,3.46,1.55,3.46,3.46v24.82c0,1.91,1.55,3.46,3.46,3.46h9.46c1.91,0,3.46,1.55,3.46,3.46Z"/>
        <path class="cls-4" d="M93.14,66.7v4.34c0,1.91-1.55,3.46-3.46,3.46h-21.75c-1.91,0-3.46-1.55-3.46-3.46V34.96c0-1.91,1.55-3.46,3.46-3.46h5.37c1.91,0,3.46,1.55,3.46,3.46v24.82c0,1.91,1.55,3.46,3.46,3.46h9.46c1.91,0,3.46,1.55,3.46,3.46Z"/>
        <path class="cls-4" d="M93.04,66.59v4.34c0,1.91-1.55,3.46-3.46,3.46h-21.75c-1.91,0-3.46-1.55-3.46-3.46V34.86c0-1.91,1.55-3.46,3.46-3.46h5.37c1.91,0,3.46,1.55,3.46,3.46v24.82c0,1.91,1.55,3.46,3.46,3.46h9.46c1.91,0,3.46,1.55,3.46,3.46Z"/>
        <path class="cls-4" d="M92.93,66.49v4.34c0,1.91-1.55,3.46-3.46,3.46h-21.75c-1.91,0-3.46-1.55-3.46-3.46V34.75c0-1.91,1.55-3.46,3.46-3.46h5.37c1.91,0,3.46,1.55,3.46,3.46v24.82c0,1.91,1.55,3.46,3.46,3.46h9.46c1.91,0,3.46,1.55,3.46,3.46Z"/>
        <path class="cls-4" d="M92.82,66.38v4.34c0,1.91-1.55,3.46-3.46,3.46h-21.75c-1.91,0-3.46-1.55-3.46-3.46V34.65c0-1.91,1.55-3.46,3.46-3.46h5.37c1.91,0,3.46,1.55,3.46,3.46v24.82c0,1.91,1.55,3.46,3.46,3.46h9.46c1.91,0,3.46,1.55,3.46,3.46Z"/>
        <path class="cls-4" d="M92.72,66.28v4.34c0,1.91-1.55,3.46-3.46,3.46h-21.75c-1.91,0-3.46-1.55-3.46-3.46V34.54c0-1.91,1.55-3.46,3.46-3.46h5.37c1.91,0,3.46,1.55,3.46,3.46v24.82c0,1.91,1.55,3.46,3.46,3.46h9.46c1.91,0,3.46,1.55,3.46,3.46Z"/>
        <path class="cls-4" d="M92.61,66.17v4.34c0,1.91-1.55,3.46-3.46,3.46h-21.75c-1.91,0-3.46-1.55-3.46-3.46V34.44c0-1.91,1.55-3.46,3.46-3.46h5.37c1.91,0,3.46,1.55,3.46,3.46v24.82c0,1.91,1.55,3.46,3.46,3.46h9.46c1.91,0,3.46,1.55,3.46,3.46Z"/>
        <path class="cls-4" d="M92.5,66.07v4.34c0,1.91-1.55,3.46-3.46,3.46h-21.75c-1.91,0-3.46-1.55-3.46-3.46V34.33c0-1.91,1.55-3.46,3.46-3.46h5.37c1.91,0,3.46,1.55,3.46,3.46v24.82c0,1.91,1.55,3.46,3.46,3.46h9.46c1.91,0,3.46,1.55,3.46,3.46Z"/>
        <path class="cls-4" d="M92.4,65.96v4.34c0,1.91-1.55,3.46-3.46,3.46h-21.75c-1.91,0-3.46-1.55-3.46-3.46V34.23c0-1.91,1.55-3.46,3.46-3.46h5.37c1.91,0,3.46,1.55,3.46,3.46v24.82c0,1.91,1.55,3.46,3.46,3.46h9.46c1.91,0,3.46,1.55,3.46,3.46Z"/>
        <path class="cls-4" d="M92.29,65.86v4.34c0,1.91-1.55,3.46-3.46,3.46h-21.75c-1.91,0-3.46-1.55-3.46-3.46V34.13c0-1.91,1.55-3.46,3.46-3.46h5.37c1.91,0,3.46,1.55,3.46,3.46v24.82c0,1.91,1.55,3.46,3.46,3.46h9.46c1.91,0,3.46,1.55,3.46,3.46Z"/>
        <path class="cls-4" d="M92.19,65.75v4.34c0,1.91-1.55,3.46-3.46,3.46h-21.75c-1.91,0-3.46-1.55-3.46-3.46V34.02c0-1.91,1.55-3.46,3.46-3.46h5.37c1.91,0,3.46,1.55,3.46,3.46v24.82c0,1.91,1.55,3.46,3.46,3.46h9.46c1.91,0,3.46,1.55,3.46,3.46Z"/>
        <path class="cls-4" d="M92.08,65.65v4.34c0,1.91-1.55,3.46-3.46,3.46h-21.75c-1.91,0-3.46-1.55-3.46-3.46V33.92c0-1.91,1.55-3.46,3.46-3.46h5.37c1.91,0,3.46,1.55,3.46,3.46v24.82c0,1.91,1.55,3.46,3.46,3.46h9.46c1.91,0,3.46,1.55,3.46,3.46Z"/>
        <path class="cls-4" d="M91.97,65.54v4.34c0,1.91-1.55,3.46-3.46,3.46h-21.75c-1.91,0-3.46-1.55-3.46-3.46V33.81c0-1.91,1.55-3.46,3.46-3.46h5.37c1.91,0,3.46,1.55,3.46,3.46v24.82c0,1.91,1.55,3.46,3.46,3.46h9.46c1.91,0,3.46,1.55,3.46,3.46Z"/>
        <path class="cls-4" d="M91.87,65.44v4.34c0,1.91-1.55,3.46-3.46,3.46h-21.75c-1.91,0-3.46-1.55-3.46-3.46V33.71c0-1.91,1.55-3.46,3.46-3.46h5.37c1.91,0,3.46,1.55,3.46,3.46v24.82c0,1.91,1.55,3.46,3.46,3.46h9.46c1.91,0,3.46,1.55,3.46,3.46Z"/>
        <path class="cls-4" d="M91.76,65.34v4.34c0,1.91-1.55,3.46-3.46,3.46h-21.75c-1.91,0-3.46-1.55-3.46-3.46V33.6c0-1.91,1.55-3.46,3.46-3.46h5.37c1.91,0,3.46,1.55,3.46,3.46v24.82c0,1.91,1.55,3.46,3.46,3.46h9.46c1.91,0,3.46,1.55,3.46,3.46Z"/>
        <path class="cls-4" d="M91.65,65.23v4.34c0,1.91-1.55,3.46-3.46,3.46h-21.75c-1.91,0-3.46-1.55-3.46-3.46V33.5c0-1.91,1.55-3.46,3.46-3.46h5.37c1.91,0,3.46,1.55,3.46,3.46v24.82c0,1.91,1.55,3.46,3.46,3.46h9.46c1.91,0,3.46,1.55,3.46,3.46Z"/>
        <path class="cls-4" d="M91.55,65.13v4.34c0,1.91-1.55,3.46-3.46,3.46h-21.75c-1.91,0-3.46-1.55-3.46-3.46V33.39c0-1.91,1.55-3.46,3.46-3.46h5.37c1.91,0,3.46,1.55,3.46,3.46v24.82c0,1.91,1.55,3.46,3.46,3.46h9.46c1.91,0,3.46,1.55,3.46,3.46Z"/>
        <path class="cls-4" d="M91.44,65.02v4.34c0,1.91-1.55,3.46-3.46,3.46h-21.75c-1.91,0-3.46-1.55-3.46-3.46V33.29c0-1.91,1.55-3.46,3.46-3.46h5.37c1.91,0,3.46,1.55,3.46,3.46v24.82c0,1.91,1.55,3.46,3.46,3.46h9.46c1.91,0,3.46,1.55,3.46,3.46Z"/>
        <path class="cls-4" d="M91.34,64.92v4.34c0,1.91-1.55,3.46-3.46,3.46h-21.75c-1.91,0-3.46-1.55-3.46-3.46V33.18c0-1.91,1.55-3.46,3.46-3.46h5.37c1.91,0,3.46,1.55,3.46,3.46v24.82c0,1.91,1.55,3.46,3.46,3.46h9.46c1.91,0,3.46,1.55,3.46,3.46Z"/>
        <path class="cls-4" d="M91.23,64.81v4.34c0,1.91-1.55,3.46-3.46,3.46h-21.75c-1.91,0-3.46-1.55-3.46-3.46V33.08c0-1.91,1.55-3.46,3.46-3.46h5.37c1.91,0,3.46,1.55,3.46,3.46v24.82c0,1.91,1.55,3.46,3.46,3.46h9.46c1.91,0,3.46,1.55,3.46,3.46Z"/>
        <path class="cls-4" d="M91.12,64.71v4.34c0,1.91-1.55,3.46-3.46,3.46h-21.75c-1.91,0-3.46-1.55-3.46-3.46V32.97c0-1.91,1.55-3.46,3.46-3.46h5.37c1.91,0,3.46,1.55,3.46,3.46v24.82c0,1.91,1.55,3.46,3.46,3.46h9.46c1.91,0,3.46,1.55,3.46,3.46Z"/>
        <path class="cls-4" d="M91.02,64.6v4.34c0,1.91-1.55,3.46-3.46,3.46h-21.75c-1.91,0-3.46-1.55-3.46-3.46V32.87c0-1.91,1.55-3.46,3.46-3.46h5.37c1.91,0,3.46,1.55,3.46,3.46v24.82c0,1.91,1.55,3.46,3.46,3.46h9.46c1.91,0,3.46,1.55,3.46,3.46Z"/>
        <path class="cls-4" d="M90.91,64.5v4.34c0,1.91-1.55,3.46-3.46,3.46h-21.75c-1.91,0-3.46-1.55-3.46-3.46V32.76c0-1.91,1.55-3.46,3.46-3.46h5.37c1.91,0,3.46,1.55,3.46,3.46v24.82c0,1.91,1.55,3.46,3.46,3.46h9.46c1.91,0,3.46,1.55,3.46,3.46Z"/>
        <path class="cls-4" d="M90.8,64.39v4.34c0,1.91-1.55,3.46-3.46,3.46h-21.75c-1.91,0-3.46-1.55-3.46-3.46V32.66c0-1.91,1.55-3.46,3.46-3.46h5.37c1.91,0,3.46,1.55,3.46,3.46v24.82c0,1.91,1.55,3.46,3.46,3.46h9.46c1.91,0,3.46,1.55,3.46,3.46Z"/>
        <path class="cls-4" d="M90.7,64.29v4.34c0,1.91-1.55,3.46-3.46,3.46h-21.75c-1.91,0-3.46-1.55-3.46-3.46V32.55c0-1.91,1.55-3.46,3.46-3.46h5.37c1.91,0,3.46,1.55,3.46,3.46v24.82c0,1.91,1.55,3.46,3.46,3.46h9.46c1.91,0,3.46,1.55,3.46,3.46Z"/>
        <path class="cls-4" d="M90.59,64.18v4.34c0,1.91-1.55,3.46-3.46,3.46h-21.75c-1.91,0-3.46-1.55-3.46-3.46V32.45c0-1.91,1.55-3.46,3.46-3.46h5.37c1.91,0,3.46,1.55,3.46,3.46v24.82c0,1.91,1.55,3.46,3.46,3.46h9.46c1.91,0,3.46,1.55,3.46,3.46Z"/>
        <path class="cls-4" d="M90.49,64.08v4.34c0,1.91-1.55,3.46-3.46,3.46h-21.75c-1.91,0-3.46-1.55-3.46-3.46V32.34c0-1.91,1.55-3.46,3.46-3.46h5.37c1.91,0,3.46,1.55,3.46,3.46v24.82c0,1.91,1.55,3.46,3.46,3.46h9.46c1.91,0,3.46,1.55,3.46,3.46Z"/>
        <path class="cls-4" d="M90.38,63.97v4.34c0,1.91-1.55,3.46-3.46,3.46h-21.75c-1.91,0-3.46-1.55-3.46-3.46V32.24c0-1.91,1.55-3.46,3.46-3.46h5.37c1.91,0,3.46,1.55,3.46,3.46v24.82c0,1.91,1.55,3.46,3.46,3.46h9.46c1.91,0,3.46,1.55,3.46,3.46Z"/>
        <path class="cls-4" d="M90.27,63.87v4.34c0,1.91-1.55,3.46-3.46,3.46h-21.75c-1.91,0-3.46-1.55-3.46-3.46V32.13c0-1.91,1.55-3.46,3.46-3.46h5.37c1.91,0,3.46,1.55,3.46,3.46v24.82c0,1.91,1.55,3.46,3.46,3.46h9.46c1.91,0,3.46,1.55,3.46,3.46Z"/>
        <path class="cls-4" d="M90.17,63.76v4.34c0,1.91-1.55,3.46-3.46,3.46h-21.75c-1.91,0-3.46-1.55-3.46-3.46V32.03c0-1.91,1.55-3.46,3.46-3.46h5.37c1.91,0,3.46,1.55,3.46,3.46v24.82c0,1.91,1.55,3.46,3.46,3.46h9.46c1.91,0,3.46,1.55,3.46,3.46Z"/>
        <path class="cls-4" d="M90.06,63.66v4.34c0,1.91-1.55,3.46-3.46,3.46h-21.75c-1.91,0-3.46-1.55-3.46-3.46V31.92c0-1.91,1.55-3.46,3.46-3.46h5.37c1.91,0,3.46,1.55,3.46,3.46v24.82c0,1.91,1.55,3.46,3.46,3.46h9.46c1.91,0,3.46,1.55,3.46,3.46Z"/>
        <path class="cls-4" d="M89.95,63.55v4.34c0,1.91-1.55,3.46-3.46,3.46h-21.75c-1.91,0-3.46-1.55-3.46-3.46V31.82c0-1.91,1.55-3.46,3.46-3.46h5.37c1.91,0,3.46,1.55,3.46,3.46v24.82c0,1.91,1.55,3.46,3.46,3.46h9.46c1.91,0,3.46,1.55,3.46,3.46Z"/>
        <path class="cls-4" d="M89.85,63.45v4.34c0,1.91-1.55,3.46-3.46,3.46h-21.75c-1.91,0-3.46-1.55-3.46-3.46V31.71c0-1.91,1.55-3.46,3.46-3.46h5.37c1.91,0,3.46,1.55,3.46,3.46v24.82c0,1.91,1.55,3.46,3.46,3.46h9.46c1.91,0,3.46,1.55,3.46,3.46Z"/>
        <path class="cls-4" d="M89.74,63.34v4.34c0,1.91-1.55,3.46-3.46,3.46h-21.75c-1.91,0-3.46-1.55-3.46-3.46V31.61c0-1.91,1.55-3.46,3.46-3.46h5.37c1.91,0,3.46,1.55,3.46,3.46v24.82c0,1.91,1.55,3.46,3.46,3.46h9.46c1.91,0,3.46,1.55,3.46,3.46Z"/>
        <path class="cls-4" d="M89.63,63.24v4.34c0,1.91-1.55,3.46-3.46,3.46h-21.75c-1.91,0-3.46-1.55-3.46-3.46V31.5c0-1.91,1.55-3.46,3.46-3.46h5.37c1.91,0,3.46,1.55,3.46,3.46v24.82c0,1.91,1.55,3.46,3.46,3.46h9.46c1.91,0,3.46,1.55,3.46,3.46Z"/>
        <path class="cls-4" d="M89.53,63.13v4.34c0,1.91-1.55,3.46-3.46,3.46h-21.75c-1.91,0-3.46-1.55-3.46-3.46V31.4c0-1.91,1.55-3.46,3.46-3.46h5.37c1.91,0,3.46,1.55,3.46,3.46v24.82c0,1.91,1.55,3.46,3.46,3.46h9.46c1.91,0,3.46,1.55,3.46,3.46Z"/>
        <path class="cls-4" d="M89.42,63.03v4.34c0,1.91-1.55,3.46-3.46,3.46h-21.75c-1.91,0-3.46-1.55-3.46-3.46V31.29c0-1.91,1.55-3.46,3.46-3.46h5.37c1.91,0,3.46,1.55,3.46,3.46v24.82c0,1.91,1.55,3.46,3.46,3.46h9.46c1.91,0,3.46,1.55,3.46,3.46Z"/>
        <path class="cls-4" d="M89.32,62.92v4.34c0,1.91-1.55,3.46-3.46,3.46h-21.75c-1.91,0-3.46-1.55-3.46-3.46V31.19c0-1.91,1.55-3.46,3.46-3.46h5.37c1.91,0,3.46,1.55,3.46,3.46v24.82c0,1.91,1.55,3.46,3.46,3.46h9.46c1.91,0,3.46,1.55,3.46,3.46Z"/>
        <path class="cls-4" d="M89.21,62.82v4.34c0,1.91-1.55,3.46-3.46,3.46h-21.75c-1.91,0-3.46-1.55-3.46-3.46V31.08c0-1.91,1.55-3.46,3.46-3.46h5.37c1.91,0,3.46,1.55,3.46,3.46v24.82c0,1.91,1.55,3.46,3.46,3.46h9.46c1.91,0,3.46,1.55,3.46,3.46Z"/>
        <path class="cls-4" d="M89.1,62.71v4.34c0,1.91-1.55,3.46-3.46,3.46h-21.75c-1.91,0-3.46-1.55-3.46-3.46V30.98c0-1.91,1.55-3.46,3.46-3.46h5.37c1.91,0,3.46,1.55,3.46,3.46v24.82c0,1.91,1.55,3.46,3.46,3.46h9.46c1.91,0,3.46,1.55,3.46,3.46Z"/>
        <path class="cls-4" d="M89,62.61v4.34c0,1.91-1.55,3.46-3.46,3.46h-21.75c-1.91,0-3.46-1.55-3.46-3.46V30.87c0-1.91,1.55-3.46,3.46-3.46h5.37c1.91,0,3.46,1.55,3.46,3.46v24.82c0,1.91,1.55,3.46,3.46,3.46h9.46c1.91,0,3.46,1.55,3.46,3.46Z"/>
        <path class="cls-4" d="M88.89,62.5v4.34c0,1.91-1.55,3.46-3.46,3.46h-21.75c-1.91,0-3.46-1.55-3.46-3.46V30.77c0-1.91,1.55-3.46,3.46-3.46h5.37c1.91,0,3.46,1.55,3.46,3.46v24.82c0,1.91,1.55,3.46,3.46,3.46h9.46c1.91,0,3.46,1.55,3.46,3.46Z"/>
        <path class="cls-4" d="M88.78,62.4v4.34c0,1.91-1.55,3.46-3.46,3.46h-21.75c-1.91,0-3.46-1.55-3.46-3.46V30.66c0-1.91,1.55-3.46,3.46-3.46h5.37c1.91,0,3.46,1.55,3.46,3.46v24.82c0,1.91,1.55,3.46,3.46,3.46h9.46c1.91,0,3.46,1.55,3.46,3.46Z"/>
        <path class="cls-4" d="M88.68,62.29v4.34c0,1.91-1.55,3.46-3.46,3.46h-21.75c-1.91,0-3.46-1.55-3.46-3.46V30.56c0-1.91,1.55-3.46,3.46-3.46h5.37c1.91,0,3.46,1.55,3.46,3.46v24.82c0,1.91,1.55,3.46,3.46,3.46h9.46c1.91,0,3.46,1.55,3.46,3.46Z"/>
        <path class="cls-4" d="M88.57,62.19v4.34c0,1.91-1.55,3.46-3.46,3.46h-21.75c-1.91,0-3.46-1.55-3.46-3.46V30.45c0-1.91,1.55-3.46,3.46-3.46h5.37c1.91,0,3.46,1.55,3.46,3.46v24.82c0,1.91,1.55,3.46,3.46,3.46h9.46c1.91,0,3.46,1.55,3.46,3.46Z"/>
        <path class="cls-4" d="M88.47,62.08v4.34c0,1.91-1.55,3.46-3.46,3.46h-21.75c-1.91,0-3.46-1.55-3.46-3.46V30.35c0-1.91,1.55-3.46,3.46-3.46h5.37c1.91,0,3.46,1.55,3.46,3.46v24.82c0,1.91,1.55,3.46,3.46,3.46h9.46c1.91,0,3.46,1.55,3.46,3.46Z"/>
        <path class="cls-4" d="M88.36,61.98v4.34c0,1.91-1.55,3.46-3.46,3.46h-21.75c-1.91,0-3.46-1.55-3.46-3.46V30.25c0-1.91,1.55-3.46,3.46-3.46h5.37c1.91,0,3.46,1.55,3.46,3.46v24.82c0,1.91,1.55,3.46,3.46,3.46h9.46c1.91,0,3.46,1.55,3.46,3.46Z"/>
        <path class="cls-4" d="M88.25,61.87v4.34c0,1.91-1.55,3.46-3.46,3.46h-21.75c-1.91,0-3.46-1.55-3.46-3.46V30.14c0-1.91,1.55-3.46,3.46-3.46h5.37c1.91,0,3.46,1.55,3.46,3.46v24.82c0,1.91,1.55,3.46,3.46,3.46h9.46c1.91,0,3.46,1.55,3.46,3.46Z"/>
        <path class="cls-4" d="M88.15,61.77v4.34c0,1.91-1.55,3.46-3.46,3.46h-21.75c-1.91,0-3.46-1.55-3.46-3.46V30.04c0-1.91,1.55-3.46,3.46-3.46h5.37c1.91,0,3.46,1.55,3.46,3.46v24.82c0,1.91,1.55,3.46,3.46,3.46h9.46c1.91,0,3.46,1.55,3.46,3.46Z"/>
        <path class="cls-4" d="M88.04,61.66v4.34c0,1.91-1.55,3.46-3.46,3.46h-21.75c-1.91,0-3.46-1.55-3.46-3.46V29.93c0-1.91,1.55-3.46,3.46-3.46h5.37c1.91,0,3.46,1.55,3.46,3.46v24.82c0,1.91,1.55,3.46,3.46,3.46h9.46c1.91,0,3.46,1.55,3.46,3.46Z"/>
        <path class="cls-4" d="M87.93,61.56v4.34c0,1.91-1.55,3.46-3.46,3.46h-21.75c-1.91,0-3.46-1.55-3.46-3.46V29.83c0-1.91,1.55-3.46,3.46-3.46h5.37c1.91,0,3.46,1.55,3.46,3.46v24.82c0,1.91,1.55,3.46,3.46,3.46h9.46c1.91,0,3.46,1.55,3.46,3.46Z"/>
        <path class="cls-4" d="M87.83,61.45v4.34c0,1.91-1.55,3.46-3.46,3.46h-21.75c-1.91,0-3.46-1.55-3.46-3.46V29.72c0-1.91,1.55-3.46,3.46-3.46h5.37c1.91,0,3.46,1.55,3.46,3.46v24.82c0,1.91,1.55,3.46,3.46,3.46h9.46c1.91,0,3.46,1.55,3.46,3.46Z"/>
      </g>
      <path class="cls-3" d="M47.41,40.59c0,8.32-5.25,15.36-14.33,15.36h-4.61c-2.54,0-4.61,2.06-4.61,4.61v4.09c0,2.54-2.06,4.61-4.61,4.61h-3.07c-2.54,0-4.61-2.06-4.61-4.61V30.87c0-2.54,2.06-4.61,4.61-4.61h14.84c11.2,0,16.38,6.01,16.38,14.33Zm-12.28,.51c0-3.14-2.37-4.61-5.25-4.61h-1.41c-2.54,0-4.61,2.06-4.61,4.61h0c0,2.54,2.06,4.61,4.61,4.61h1.41c2.88,0,5.25-1.41,5.25-4.61Z"/>
      <path class="cls-3" d="M87.83,61.45v4.34c0,1.91-1.55,3.46-3.46,3.46h-21.75c-1.91,0-3.46-1.55-3.46-3.46V29.72c0-1.91,1.55-3.46,3.46-3.46h5.37c1.91,0,3.46,1.55,3.46,3.46v24.82c0,1.91,1.55,3.46,3.46,3.46h9.46c1.91,0,3.46,1.55,3.46,3.46Z"/>
    </g>
  </g>
  <rect class="cls-2" x="-114.85" y="-216.91" width="894.64" height="853.79"/>
</svg>